<svg width="4849" height="4849" viewBox="0 0 4849 4849" fill="none" xmlns="http://www.w3.org/2000/svg">
<path d="M2238.07 147.881C2347.26 61.264 2501.74 61.2641 2610.93 147.881L2963.33 427.406C3019.78 472.181 3090.45 495.145 3162.44 492.101L3611.83 473.094C3751.09 467.204 3876.06 558 3913.49 692.26L4034.28 1125.53C4053.63 1194.94 4097.31 1255.06 4157.34 1294.91L4532.08 1543.68C4648.2 1620.76 4695.94 1767.68 4647.3 1898.3L4490.36 2319.82C4465.22 2387.34 4465.22 2461.66 4490.36 2529.18L4647.3 2950.7C4695.94 3081.32 4648.2 3228.24 4532.08 3305.32L4157.34 3554.09C4097.31 3593.94 4053.63 3654.06 4034.28 3723.47L3913.49 4156.74C3876.06 4291 3751.09 4381.8 3611.83 4375.91L3162.44 4356.9C3090.45 4353.85 3019.78 4376.82 2963.33 4421.59L2610.93 4701.12C2501.74 4787.74 2347.26 4787.74 2238.07 4701.12L1885.67 4421.59C1829.22 4376.82 1758.55 4353.85 1686.56 4356.9L1237.17 4375.91C1097.91 4381.8 972.94 4291 935.509 4156.74L814.715 3723.47C795.366 3654.06 751.685 3593.94 691.658 3554.09L316.918 3305.32C200.796 3228.24 153.062 3081.32 201.696 2950.7L358.643 2529.18C383.783 2461.66 383.783 2387.34 358.643 2319.82L201.696 1898.3C153.062 1767.68 200.796 1620.76 316.918 1543.68L691.658 1294.91C751.685 1255.06 795.366 1194.94 814.715 1125.53L935.509 692.26C972.94 558 1097.91 467.204 1237.17 473.094L1686.56 492.101C1758.55 495.145 1829.22 472.181 1885.67 427.406L2238.07 147.881Z" fill="#93B559"/>
<path d="M2243.66 337.933C2349.17 254.242 2498.25 253.915 2604.1 336.952L2605.34 337.933L2910.46 579.957C2968.6 626.075 3041.4 649.729 3115.54 646.593L3504.65 630.136C3639.73 624.423 3760.95 712.495 3797.26 842.727L3901.85 1217.87C3921.78 1289.36 3966.77 1351.28 4028.59 1392.33L4353.06 1607.73C4465.7 1682.5 4512 1825 4464.83 1951.71L4328.93 2316.68C4303.04 2386.23 4303.04 2462.77 4328.93 2532.32L4464.83 2897.29C4512 3024 4465.7 3166.5 4353.06 3241.27L4028.59 3456.67C3966.77 3497.72 3921.78 3559.64 3901.85 3631.13L3797.26 4006.27C3760.95 4136.5 3639.73 4224.58 3504.65 4218.86L3115.54 4202.41C3041.4 4199.27 2968.6 4222.92 2910.46 4269.04L2605.34 4511.07C2499.42 4595.09 2349.58 4595.09 2243.66 4511.07L1938.54 4269.04C1880.4 4222.92 1807.6 4199.27 1733.46 4202.41L1344.35 4218.86C1209.27 4224.58 1088.05 4136.51 1051.74 4006.27L947.154 3631.13C927.225 3559.64 882.233 3497.72 820.405 3456.67L495.939 3241.27C383.301 3166.5 336.999 3024 384.174 2897.29L520.065 2532.32C545.96 2462.77 545.96 2386.23 520.065 2316.68L384.174 1951.71C336.999 1825 383.301 1682.5 495.939 1607.73L820.405 1392.33C882.233 1351.28 927.225 1289.36 947.154 1217.87L1051.74 842.728C1088.05 712.495 1209.27 624.423 1344.35 630.136L1733.46 646.593C1807.6 649.729 1880.4 626.075 1938.54 579.957L2243.66 337.933Z" stroke="white" stroke-width="18" stroke-miterlimit="2.3662"/>
<g filter="url(#filter0_d_946_484)">
<path d="M1606.93 1880.3C1606.93 1882.63 1605.06 1884.03 1601.33 1884.5C1598.06 1884.97 1585.7 1885.67 1564.23 1886.6C1551.63 1887.07 1544.4 1889.63 1542.53 1894.3C1540.66 1897.1 1539.96 1912.03 1540.43 1939.1L1541.13 2020.3C1541.6 2074.43 1541.83 2145.13 1541.83 2232.4V2351.4C1541.83 2359.33 1540.2 2363.3 1536.93 2363.3C1531.8 2363.3 1497.73 2324.8 1434.73 2247.8C1372.2 2170.33 1303.36 2081.9 1228.23 1982.5V2034.3C1228.23 2052.03 1228.46 2067.43 1228.93 2080.5C1228.93 2093.57 1228.93 2101.5 1228.93 2104.3V2322C1228.93 2331.8 1231.96 2337.87 1238.03 2340.2C1247.83 2343.93 1259.26 2345.8 1272.33 2345.8C1287.73 2345.8 1296.36 2346.97 1298.23 2349.3C1298.7 2349.77 1298.93 2350.7 1298.93 2352.1C1298.93 2355.83 1295.43 2357.7 1288.43 2357.7C1284.23 2357.7 1280.73 2357.47 1277.93 2357C1249.93 2356.07 1232.43 2355.6 1225.43 2355.6C1209.1 2355.6 1187.63 2356.07 1161.03 2357C1147.96 2357.47 1142.36 2357.7 1144.23 2357.7C1137.23 2357.7 1133.73 2355.83 1133.73 2352.1C1133.73 2348.83 1144 2346.5 1164.53 2345.1C1188.33 2343.23 1202.1 2339.5 1205.83 2333.9C1208.16 2330.17 1209.33 2313.37 1209.33 2283.5V1995.8C1209.33 1966.4 1208.86 1948.67 1207.93 1942.6C1205.13 1922.07 1196.96 1907.13 1183.43 1897.8C1173.16 1890.8 1154.03 1886.83 1126.03 1885.9C1118.56 1885.43 1114.83 1883.33 1114.83 1879.6C1114.83 1875.4 1118.1 1873.3 1124.63 1873.3C1127.43 1873.3 1137.46 1873.77 1154.73 1874.7C1163.13 1875.17 1175.73 1875.4 1192.53 1875.4C1227.06 1875.4 1255.06 1874.93 1276.53 1874L1522.23 2189.7V1912.5C1522.23 1901.3 1520.36 1894.3 1516.63 1891.5C1512.9 1888.23 1504.96 1886.37 1492.83 1885.9L1462.73 1884.5C1457.13 1884.03 1454.33 1882.4 1454.33 1879.6C1454.33 1875.87 1458.53 1874 1466.93 1874H1482.33C1485.13 1874 1489.8 1873.77 1496.33 1873.3C1502.4 1873.3 1507.76 1873.3 1512.43 1873.3C1559.56 1873.3 1587.1 1873.53 1595.03 1874C1602.96 1874.47 1606.93 1876.57 1606.93 1880.3ZM2043.84 1879.6C2043.84 1883.33 2035.91 1885.43 2020.04 1885.9C2000.44 1886.37 1988.54 1889.63 1984.34 1895.7C1982.94 1897.57 1982.01 1901.53 1981.54 1907.6V2203.7C1981.54 2313.83 1928.81 2368.9 1823.34 2368.9C1769.21 2368.9 1727.21 2352.33 1697.34 2319.2C1674.94 2294.47 1663.74 2250.6 1663.74 2187.6V1918.8C1663.74 1903.87 1661.41 1894.77 1656.74 1891.5C1652.07 1888.23 1637.37 1885.67 1612.64 1883.8C1607.51 1883.33 1604.94 1881.47 1604.94 1878.2C1604.94 1874 1609.14 1871.9 1617.54 1871.9C1617.54 1871.9 1619.41 1871.9 1623.14 1871.9C1627.34 1872.37 1630.84 1872.6 1633.64 1872.6L1677.04 1873.3C1718.11 1873.77 1748.44 1873.77 1768.04 1873.3C1794.17 1872.83 1804.44 1872.6 1798.84 1872.6H1813.54C1821.47 1872.6 1825.44 1874.93 1825.44 1879.6C1825.44 1883.8 1818.21 1885.9 1803.74 1885.9C1783.21 1885.9 1772.24 1889.63 1770.84 1897.1C1769.91 1902.23 1769.44 1907.13 1769.44 1911.8V2173.6C1769.44 2211.4 1770.14 2235.43 1771.54 2245.7C1774.81 2276.03 1783.44 2297.97 1797.44 2311.5C1814.71 2328.3 1837.34 2336.7 1865.34 2336.7C1897.07 2336.7 1920.41 2326.43 1935.34 2305.9C1953.54 2281.17 1962.64 2236.83 1962.64 2172.9V1941.9C1962.64 1937.7 1962.87 1932.33 1963.34 1925.8C1963.34 1919.27 1963.34 1915.3 1963.34 1913.9C1963.34 1901.77 1959.84 1893.83 1952.84 1890.1C1948.17 1887.3 1939.07 1885.9 1925.54 1885.9C1908.74 1885.43 1900.34 1882.63 1900.34 1877.5C1900.34 1873.77 1903.61 1871.9 1910.14 1871.9C1917.14 1871.9 1927.41 1872.37 1940.94 1873.3C1954.47 1873.77 1964.74 1874 1971.74 1874C1972.21 1874 1976.17 1873.77 1983.64 1873.3C1991.57 1873.3 1998.81 1873.3 2005.34 1873.3H2022.14C2036.61 1873.3 2043.84 1875.4 2043.84 1879.6ZM2453.36 2002.8C2453.36 2006.53 2451.72 2008.4 2448.46 2008.4C2443.32 2008.4 2438.66 1999.3 2434.46 1981.1C2426.06 1945.17 2414.39 1920.67 2399.46 1907.6C2384.52 1894.53 2360.72 1888 2328.06 1888C2315.46 1888 2304.49 1888.47 2295.16 1889.4L2295.86 2315C2296.32 2326.67 2299.59 2334.13 2305.66 2337.4C2311.72 2340.67 2328.06 2343.47 2354.66 2345.8C2359.79 2346.27 2362.36 2348.37 2362.36 2352.1C2362.36 2356.77 2358.62 2359.1 2351.16 2359.1C2349.76 2359.1 2346.26 2358.87 2340.66 2358.4C2333.66 2357.93 2327.82 2357.7 2323.16 2357.7L2251.06 2355.6L2132.06 2357.7C2125.52 2357.7 2122.26 2355.83 2122.26 2352.1C2122.26 2349.3 2123.19 2347.67 2125.06 2347.2C2126.92 2346.73 2134.62 2346.27 2148.16 2345.8C2173.82 2344.87 2187.59 2338.8 2189.46 2327.6C2190.39 2321.53 2190.86 2274.17 2190.86 2185.5V1889.4C2185.72 1888.93 2179.66 1888.7 2172.66 1888.7C2135.32 1888.7 2108.02 1895.7 2090.76 1909.7C2073.96 1923.23 2062.99 1947.5 2057.86 1982.5C2054.59 2003.03 2050.39 2013.3 2045.26 2013.3C2041.06 2013.3 2038.96 2010.5 2038.96 2004.9C2038.96 2001.17 2039.89 1988.33 2041.76 1966.4C2045.49 1920.67 2047.82 1889.4 2048.76 1872.6H2059.26L2110.36 1871.9C2111.76 1871.9 2127.86 1872.37 2158.66 1873.3C2189.92 1874.23 2229.59 1874.7 2277.66 1874.7C2304.26 1874.7 2328.06 1874.47 2349.06 1874C2370.06 1873.53 2389.19 1873.3 2406.46 1873.3C2421.86 1873.3 2433.52 1872.83 2441.46 1871.9C2442.86 1902.23 2446.36 1940.97 2451.96 1988.1C2452.89 1996.03 2453.36 2000.93 2453.36 2002.8ZM2901.31 2329.7C2901.31 2355.83 2884.28 2368.9 2850.21 2368.9C2807.28 2368.9 2772.98 2355.37 2747.31 2328.3C2727.24 2307.3 2715.81 2284.9 2713.01 2261.1L2706.01 2203.7C2701.34 2167.3 2692.71 2141.87 2680.11 2127.4C2667.98 2112.93 2648.14 2105.93 2620.61 2106.4V2265.3C2620.61 2302.17 2620.84 2322 2621.31 2324.8C2621.31 2332.73 2624.58 2338.33 2631.11 2341.6C2637.64 2344.4 2650.01 2345.8 2668.21 2345.8C2679.41 2345.8 2685.01 2347.9 2685.01 2352.1C2685.01 2355.83 2682.21 2357.7 2676.61 2357.7L2608.71 2357C2608.71 2357 2604.98 2357 2597.51 2357C2589.11 2357.47 2581.18 2357.7 2573.71 2357.7H2523.31C2518.64 2357.7 2513.28 2357.47 2507.21 2357C2502.08 2357 2498.81 2357 2497.41 2357L2465.21 2357.7C2458.68 2357.7 2455.41 2355.83 2455.41 2352.1C2455.41 2347.9 2464.98 2345.33 2484.11 2344.4C2499.98 2343.47 2509.31 2339.73 2512.11 2333.2C2513.51 2329.93 2514.21 2320.13 2514.21 2303.8V1943.3C2514.21 1919.03 2513.74 1904.8 2512.81 1900.6C2511.88 1895.93 2508.84 1892.43 2503.71 1890.1C2497.18 1887.3 2486.68 1885.9 2472.21 1885.9C2461.94 1885.9 2456.81 1883.8 2456.81 1879.6C2456.81 1876.33 2458.91 1874.47 2463.11 1874C2467.31 1873.07 2478.51 1872.6 2496.71 1872.6C2496.71 1872.6 2500.91 1872.6 2509.31 1872.6C2517.71 1873.07 2525.88 1873.3 2533.81 1873.3H2556.91C2557.38 1873.3 2562.28 1873.07 2571.61 1872.6C2580.48 1872.6 2588.88 1872.6 2596.81 1872.6H2637.41C2702.74 1872.6 2747.31 1877.73 2771.11 1888C2789.78 1895.93 2804.71 1908.07 2815.91 1924.4C2827.11 1940.73 2832.71 1958.7 2832.71 1978.3C2832.71 2023.1 2809.38 2056.23 2762.71 2077.7C2742.18 2087.03 2711.84 2094.03 2671.71 2098.7L2671.01 2102.9C2721.88 2106.17 2758.74 2119.7 2781.61 2143.5C2804.48 2166.83 2818.24 2204.87 2822.91 2257.6C2826.64 2299.6 2832.48 2325.97 2840.41 2336.7C2848.34 2346.97 2856.51 2352.1 2864.91 2352.1C2871.91 2352.1 2875.41 2350.23 2875.41 2346.5C2875.41 2344.63 2872.61 2342.07 2867.01 2338.8C2861.88 2335.53 2859.31 2330.87 2859.31 2324.8C2859.31 2312.2 2866.31 2305.9 2880.31 2305.9C2894.31 2305.9 2901.31 2313.83 2901.31 2329.7ZM2724.21 1976.2C2724.21 1916 2700.41 1885.9 2652.81 1885.9C2637.41 1885.9 2627.84 1891.03 2624.11 1901.3C2621.78 1907.83 2620.61 1933.27 2620.61 1977.6V2093.8C2657.01 2094.27 2683.38 2085.17 2699.71 2066.5C2716.04 2047.83 2724.21 2017.73 2724.21 1976.2ZM3123.01 2352.1C3123.01 2355.83 3119.98 2357.7 3113.91 2357.7C3110.65 2357.7 3107.61 2357.47 3104.81 2357C3076.81 2355.6 3052.78 2354.9 3032.71 2354.9C3011.71 2354.9 2980.91 2355.6 2940.31 2357C2926.78 2357.47 2916.75 2357.7 2910.21 2357.7C2903.21 2357.7 2899.71 2355.6 2899.71 2351.4C2899.71 2349.07 2900.88 2347.67 2903.21 2347.2C2906.01 2346.73 2915.11 2346.27 2930.51 2345.8C2944.98 2343 2953.38 2338.8 2955.71 2333.2C2958.05 2327.13 2959.21 2308.23 2959.21 2276.5V1939.8C2959.21 1930.93 2959.21 1922.3 2959.21 1913.9C2958.75 1905.5 2958.51 1901.53 2958.51 1902C2958.51 1890.33 2946.85 1884.5 2923.51 1884.5C2910.45 1884.5 2903.91 1882.87 2903.91 1879.6C2903.91 1876.33 2904.85 1874.47 2906.71 1874C2908.58 1873.53 2914.65 1873.3 2924.91 1873.3C2920.25 1873.3 2928.65 1873.53 2950.11 1874C2971.58 1874.47 2990.01 1874.7 3005.41 1874.7H3041.11C3048.58 1874.7 3059.08 1874.47 3072.61 1874C3086.61 1873.07 3096.41 1872.6 3102.01 1872.6H3109.01C3115.08 1872.6 3118.11 1874.47 3118.11 1878.2C3118.11 1881 3116.95 1882.87 3114.61 1883.8C3112.75 1884.27 3105.75 1884.73 3093.61 1885.2C3079.15 1886.13 3070.28 1889.17 3067.01 1894.3L3064.91 1907.6V2303.1C3064.91 2323.17 3067.01 2335.07 3071.21 2338.8C3075.88 2342.53 3091.05 2345.1 3116.71 2346.5C3120.91 2346.97 3123.01 2348.83 3123.01 2352.1Z" fill="white"/>
<path d="M2251.04 2823.5C2251.04 2824.43 2250.8 2846.13 2250.34 2888.6C2249.87 2911 2249.4 2927.1 2248.94 2936.9C2248.94 2946.7 2248.94 2951.37 2248.94 2950.9C2125.74 2945.3 2017.94 2943.67 1925.54 2946L1866.74 2947.4C1858.34 2947.4 1854.14 2945.53 1854.14 2941.8C1854.14 2939 1855.07 2937.37 1856.94 2936.9C1859.27 2936.43 1866.5 2935.73 1878.64 2934.8C1900.57 2933.4 1912.47 2927.1 1914.34 2915.9C1915.27 2909.83 1915.74 2903.07 1915.74 2895.6V2540.7C1915.74 2512.7 1915.5 2497.3 1915.04 2494.5C1914.57 2487.03 1912.24 2481.9 1908.04 2479.1C1903.84 2476.3 1895.2 2474.9 1882.14 2474.9C1867.67 2474.9 1860.44 2472.8 1860.44 2468.6C1860.44 2463.93 1866.74 2461.6 1879.34 2461.6C1892.4 2461.6 1910.37 2461.37 1933.24 2460.9C2019.1 2459.03 2089.34 2458.57 2143.94 2459.5L2191.54 2460.2C2201.8 2460.2 2214.4 2459.27 2229.34 2457.4L2235.64 2533.7C2237.97 2557.97 2239.14 2572.9 2239.14 2578.5C2239.14 2583.17 2236.8 2585.5 2232.14 2585.5C2227.47 2585.5 2224.44 2579.43 2223.04 2567.3C2218.84 2535.1 2205.77 2511.77 2183.84 2497.3C2162.37 2482.37 2130.4 2474.9 2087.94 2474.9C2074.87 2474.9 2052.47 2475.6 2020.74 2477V2683.5C2072.07 2683.97 2104.27 2680.47 2117.34 2673C2130.87 2665.07 2139.97 2645 2144.64 2612.8C2146.97 2595.53 2150.47 2586.9 2155.14 2586.9C2159.34 2586.9 2161.44 2591.1 2161.44 2599.5C2161.44 2607.9 2160.74 2625.17 2159.34 2651.3C2158.87 2660.17 2158.64 2672.07 2158.64 2687C2158.64 2727.13 2159.1 2757.47 2160.04 2778C2160.5 2780.8 2160.74 2784.3 2160.74 2788.5C2160.74 2794.1 2158.64 2796.9 2154.44 2796.9C2151.17 2796.9 2149.07 2795.97 2148.14 2794.1C2147.2 2791.77 2145.8 2784.07 2143.94 2771C2139.27 2737.87 2132.74 2717.33 2124.34 2709.4C2116.4 2701 2097.74 2696.8 2068.34 2696.8H2020.74V2932.7L2065.54 2932C2116.87 2931.07 2148.14 2929.9 2159.34 2928.5C2173.34 2926.63 2186.87 2921.5 2199.94 2913.1C2211.6 2903.77 2219.54 2893.73 2223.74 2883C2228.4 2872.27 2233.3 2852.43 2238.44 2823.5C2239.84 2816.5 2242.17 2813 2245.44 2813C2249.17 2813 2251.04 2816.5 2251.04 2823.5ZM2922.15 2467.9C2922.15 2471.63 2918.65 2473.73 2911.65 2474.2C2890.65 2475.13 2877.35 2477.7 2871.75 2481.9C2866.15 2485.63 2859.85 2497.3 2852.85 2516.9C2848.65 2527.63 2842.35 2543.97 2833.95 2565.9C2827.88 2584.1 2818.31 2612.1 2805.25 2649.9C2798.71 2667.63 2788.91 2694.47 2775.85 2730.4L2741.55 2826.3C2717.28 2893.97 2703.75 2932.93 2700.95 2943.2C2699.08 2949.27 2696.98 2952.3 2694.65 2952.3C2691.85 2952.3 2689.51 2950.2 2687.65 2946C2685.78 2941.33 2680.41 2925.23 2671.55 2897.7C2659.88 2861.3 2642.85 2816.03 2620.45 2761.9L2596.65 2704.5C2549.98 2804.37 2516.38 2883.7 2495.85 2942.5C2493.51 2948.57 2490.95 2951.6 2488.15 2951.6C2486.28 2951.6 2480.45 2939.23 2470.65 2914.5L2385.25 2691.9C2364.71 2635.9 2338.35 2569.17 2306.15 2491.7C2302.88 2483.3 2297.51 2478.17 2290.05 2476.3C2285.85 2474.9 2277.68 2474.2 2265.55 2474.2C2253.41 2474.2 2247.35 2472.1 2247.35 2467.9C2247.35 2464.17 2250.61 2462.3 2257.15 2462.3C2256.68 2462.3 2264.38 2462.3 2280.25 2462.3C2296.58 2462.77 2310.58 2463 2322.25 2463H2348.85L2419.55 2461.6C2421.88 2461.6 2425.85 2461.37 2431.45 2460.9C2436.11 2460.9 2439.38 2460.9 2441.25 2460.9C2447.31 2460.9 2450.35 2463.23 2450.35 2467.9C2450.35 2472.1 2442.88 2473.97 2427.95 2473.5C2420.01 2473.5 2416.05 2475.6 2416.05 2479.8C2416.05 2481.67 2416.51 2483.77 2417.45 2486.1C2427.71 2514.57 2443.35 2557.03 2464.35 2613.5L2536.45 2799.7L2585.45 2687.7C2578.45 2667.17 2564.91 2630.3 2544.85 2577.1C2541.11 2568.7 2535.98 2555.87 2529.45 2538.6C2528.05 2534.4 2525.71 2527.87 2522.45 2519C2514.51 2497.53 2507.98 2484.7 2502.85 2480.5C2497.71 2475.83 2486.98 2473.5 2470.65 2473.5C2465.98 2473.03 2463.65 2470.93 2463.65 2467.2C2463.65 2463 2468.08 2460.9 2476.95 2460.9C2475.55 2460.9 2477.88 2461.13 2483.95 2461.6C2490.48 2462.07 2500.98 2462.3 2515.45 2462.3L2759.75 2461.6C2768.61 2461.13 2773.05 2463.23 2773.05 2467.9C2773.05 2471.63 2769.55 2473.5 2762.55 2473.5C2729.41 2473.03 2710.28 2478.63 2705.15 2490.3C2697.21 2502.9 2680.65 2538.6 2655.45 2597.4C2671.78 2639.4 2697.91 2705.9 2733.85 2796.9C2741.31 2777.77 2749.25 2756.53 2757.65 2733.2C2765.11 2713.6 2777.25 2680.23 2794.05 2633.1C2804.78 2601.83 2813.88 2576.4 2821.35 2556.8C2833.95 2523.67 2840.25 2502.2 2840.25 2492.4C2840.25 2483.07 2835.58 2477.23 2826.25 2474.9C2822.98 2473.97 2814.58 2473.5 2801.05 2473.5C2793.58 2473.5 2789.85 2471.63 2789.85 2467.9C2789.85 2464.17 2793.35 2462.3 2800.35 2462.3L2855.65 2463.7C2879.45 2464.17 2897.41 2463.7 2909.55 2462.3H2915.15C2919.81 2462.3 2922.15 2464.17 2922.15 2467.9ZM2682.05 2492.4C2682.05 2479.8 2670.85 2473.5 2648.45 2473.5C2625.58 2473.5 2614.15 2477.7 2614.15 2486.1C2614.15 2497.77 2625.35 2527.63 2647.75 2575.7C2670.61 2528.1 2682.05 2500.33 2682.05 2492.4ZM3296.94 2823.5C3296.94 2824.43 3296.7 2846.13 3296.24 2888.6C3295.77 2911 3295.3 2927.1 3294.84 2936.9C3294.84 2946.7 3294.84 2951.37 3294.84 2950.9C3171.64 2945.3 3063.84 2943.67 2971.44 2946L2912.64 2947.4C2904.24 2947.4 2900.04 2945.53 2900.04 2941.8C2900.04 2939 2900.97 2937.37 2902.84 2936.9C2905.17 2936.43 2912.4 2935.73 2924.54 2934.8C2946.47 2933.4 2958.37 2927.1 2960.24 2915.9C2961.17 2909.83 2961.64 2903.07 2961.64 2895.6V2540.7C2961.64 2512.7 2961.4 2497.3 2960.94 2494.5C2960.47 2487.03 2958.14 2481.9 2953.94 2479.1C2949.74 2476.3 2941.1 2474.9 2928.04 2474.9C2913.57 2474.9 2906.34 2472.8 2906.34 2468.6C2906.34 2463.93 2912.64 2461.6 2925.24 2461.6C2938.3 2461.6 2956.27 2461.37 2979.14 2460.9C3065 2459.03 3135.24 2458.57 3189.84 2459.5L3237.44 2460.2C3247.7 2460.2 3260.3 2459.27 3275.24 2457.4L3281.54 2533.7C3283.87 2557.97 3285.04 2572.9 3285.04 2578.5C3285.04 2583.17 3282.7 2585.5 3278.04 2585.5C3273.37 2585.5 3270.34 2579.43 3268.94 2567.3C3264.74 2535.1 3251.67 2511.77 3229.74 2497.3C3208.27 2482.37 3176.3 2474.9 3133.84 2474.9C3120.77 2474.9 3098.37 2475.6 3066.64 2477V2683.5C3117.97 2683.97 3150.17 2680.47 3163.24 2673C3176.77 2665.07 3185.87 2645 3190.54 2612.8C3192.87 2595.53 3196.37 2586.9 3201.04 2586.9C3205.24 2586.9 3207.34 2591.1 3207.34 2599.5C3207.34 2607.9 3206.64 2625.17 3205.24 2651.3C3204.77 2660.17 3204.54 2672.07 3204.54 2687C3204.54 2727.13 3205 2757.47 3205.94 2778C3206.4 2780.8 3206.64 2784.3 3206.64 2788.5C3206.64 2794.1 3204.54 2796.9 3200.34 2796.9C3197.07 2796.9 3194.97 2795.97 3194.04 2794.1C3193.1 2791.77 3191.7 2784.07 3189.84 2771C3185.17 2737.87 3178.64 2717.33 3170.24 2709.4C3162.3 2701 3143.64 2696.8 3114.24 2696.8H3066.64V2932.7L3111.44 2932C3162.77 2931.07 3194.04 2929.9 3205.24 2928.5C3219.24 2926.63 3232.77 2921.5 3245.84 2913.1C3257.5 2903.77 3265.44 2893.73 3269.64 2883C3274.3 2872.27 3279.2 2852.43 3284.34 2823.5C3285.74 2816.5 3288.07 2813 3291.34 2813C3295.07 2813 3296.94 2816.5 3296.94 2823.5ZM3703.44 2827.7C3703.44 2836.57 3703.21 2844.03 3702.74 2850.1C3700.88 2870.63 3700.18 2887.2 3700.64 2899.8L3701.34 2949.5C3641.61 2947.17 3533.58 2946 3377.24 2946H3347.84C3327.31 2946 3317.04 2944.13 3317.04 2940.4C3317.04 2936.67 3320.31 2934.8 3326.84 2934.8C3350.18 2934.33 3365.11 2931.07 3371.64 2925C3375.84 2921.27 3377.94 2910.07 3377.94 2891.4L3377.24 2512C3377.24 2496.13 3375.84 2486.33 3373.04 2482.6C3367.44 2475.6 3358.81 2472.33 3347.14 2472.8L3329.64 2473.5C3324.51 2473.5 3321.94 2471.63 3321.94 2467.9C3321.94 2464.17 3325.21 2462.3 3331.74 2462.3C3335.48 2462.3 3339.21 2462.53 3342.94 2463H3520.74C3523.08 2462.53 3525.64 2462.3 3528.44 2462.3C3533.11 2462.3 3535.44 2464.17 3535.44 2467.9C3535.44 2472.1 3529.38 2474.2 3517.24 2474.2C3499.98 2474.2 3489.71 2476.3 3486.44 2480.5C3483.64 2484.7 3482.24 2503.13 3482.24 2535.8V2702.4C3482.24 2736.47 3483.18 2812.77 3485.04 2931.3C3493.91 2931.77 3503.94 2932 3515.14 2932C3564.14 2932 3597.98 2930.13 3616.64 2926.4C3646.04 2920.33 3666.11 2905.4 3676.84 2881.6C3682.44 2869.47 3687.58 2850.1 3692.24 2823.5C3693.64 2816.03 3695.74 2812.3 3698.54 2812.3C3701.81 2812.3 3703.44 2817.43 3703.44 2827.7Z" fill="white"/>
<path d="M1589.91 3072.6C1609.51 3070.73 1625.61 3064.9 1638.21 3055.1C1651.28 3045.77 1661.08 3029.9 1667.61 3007.5C1674.61 2985.57 1678.11 2955.47 1678.11 2917.2V2533.6C1678.11 2515.87 1676.71 2503.03 1673.91 2495.1C1671.58 2487.17 1666.68 2481.8 1659.21 2479C1652.21 2476.2 1641.01 2474.33 1625.61 2473.4V2459.4C1648.94 2460.8 1684.18 2461.5 1731.31 2461.5C1779.38 2461.5 1816.24 2460.8 1841.91 2459.4V2473.4C1826.04 2474.33 1814.61 2476.2 1807.61 2479C1800.61 2481.8 1795.71 2487.17 1792.91 2495.1C1790.58 2503.03 1789.41 2515.87 1789.41 2533.6V2789.8V2832.5C1789.41 2898.3 1785.44 2944.97 1777.51 2972.5C1767.71 3006.57 1746.71 3034.1 1714.51 3055.1C1682.78 3076.1 1641.24 3086.6 1589.91 3086.6V3072.6Z" fill="white"/>
</g>
<path d="M890.261 2625.69L803.42 2637.19L799.676 2608.94L886.517 2597.43L1001.14 2498.72L1005.6 2532.33L912.914 2609.37L1022.27 2658.13L1026.52 2690.25L890.261 2625.69Z" fill="white"/>
<path d="M928.46 2743.34C918.053 2746.23 908.117 2750.44 898.652 2755.97C889.38 2761.45 881.499 2768.2 875.01 2776.23C868.52 2784.26 864.027 2793.5 861.531 2803.94C859.227 2814.34 859.813 2825.8 863.29 2838.33C866.766 2850.85 872.171 2860.98 879.502 2868.7C887.027 2876.36 895.638 2881.97 905.337 2885.5C915.036 2889.03 925.27 2890.76 936.04 2890.68C947.003 2890.54 957.687 2889.03 968.094 2886.14C978.501 2883.25 988.34 2879.07 997.612 2873.59C1007.08 2868.06 1015.05 2861.27 1021.54 2853.25C1028.03 2845.22 1032.43 2836.01 1034.73 2825.61C1037.23 2815.16 1036.74 2803.68 1033.26 2791.15C1029.79 2778.62 1024.29 2768.53 1016.76 2760.86C1009.43 2753.14 1000.92 2747.51 991.217 2743.98C981.518 2740.44 971.187 2738.74 960.225 2738.88C949.455 2738.96 938.866 2740.45 928.46 2743.34ZM920.838 2715.88C934.906 2711.97 948.958 2710.25 962.993 2710.71C977.274 2711.32 990.575 2714.37 1002.9 2719.88C1015.22 2725.38 1026.08 2733.47 1035.47 2744.15C1044.87 2754.82 1051.84 2768.35 1056.39 2784.73C1060.94 2801.11 1061.93 2816.3 1059.38 2830.29C1056.83 2844.28 1051.7 2856.81 1043.97 2867.88C1036.25 2878.95 1026.4 2888.33 1014.42 2896.01C1002.69 2903.83 989.784 2909.7 975.716 2913.6C961.648 2917.51 947.473 2919.16 933.192 2918.55C919.157 2918.09 905.978 2915.11 893.657 2909.6C881.336 2904.1 870.477 2896.01 861.079 2885.33C851.875 2874.6 844.999 2861.05 840.453 2844.67C835.906 2828.28 834.812 2813.12 837.171 2799.19C839.722 2785.19 844.858 2772.66 852.579 2761.6C860.3 2750.53 870.028 2741.08 881.763 2733.26C893.745 2725.57 906.77 2719.78 920.838 2715.88Z" fill="white"/>
<path d="M1031.57 3121.15C1006.54 3132.29 984.749 3134 966.205 3126.27C947.845 3118.46 933.177 3102.22 922.201 3077.55C910.981 3052.33 908.14 3029.95 913.676 3010.42C919.476 2990.98 935.441 2975.45 961.571 2963.82L1086.56 2908.21L1098.14 2934.25L973.157 2989.86C955.615 2997.67 944.348 3008.26 939.358 3021.65C934.551 3034.95 936.05 3050.37 943.854 3067.91C951.253 3084.54 961.339 3095.16 974.114 3099.76C987.153 3104.47 1002.44 3102.92 1019.99 3095.12L1144.97 3039.51L1156.56 3065.54L1031.57 3121.15Z" fill="white"/>
<path d="M1150.54 3299.61L1193.48 3358.15L1252.91 3270.26L1252.55 3269.78L1150.54 3299.61ZM1264.48 3242.42L1283.12 3267.82L1159.93 3462.02L1141.3 3436.62L1179.46 3379.6L1125.86 3306.55L1059.66 3325.36L1042.45 3301.9L1264.48 3242.42Z" fill="white"/>
<path d="M1344.1 3349.73L1414.23 3422.13C1428.43 3436.78 1435.9 3451.68 1436.65 3466.82C1437.54 3482.11 1431.73 3495.81 1419.23 3507.92C1409.9 3516.96 1399.62 3522.74 1388.41 3525.25C1377.33 3527.9 1365.98 3525.81 1354.35 3518.98L1353.92 3519.4C1357.37 3524.69 1359.41 3529.67 1360.05 3534.35C1360.82 3539.17 1360.53 3543.76 1359.19 3548.12C1358.13 3552.49 1356.23 3556.7 1353.48 3560.76C1350.86 3564.96 1347.9 3569.09 1344.58 3573.14C1341.12 3577.04 1337.53 3580.95 1333.79 3584.85C1330.05 3588.75 1326.59 3592.79 1323.41 3596.99C1320.23 3601.18 1317.41 3605.45 1314.93 3609.79C1312.74 3614.14 1311.4 3618.65 1310.9 3623.31L1288.77 3600.47C1288.96 3597.5 1290.14 3594.41 1292.31 3591.19C1294.63 3588.11 1297.36 3584.9 1300.53 3581.56C1303.84 3578.08 1307.36 3574.39 1311.1 3570.48C1314.84 3566.58 1318.23 3562.46 1321.27 3558.13C1324.45 3553.94 1327.27 3549.81 1329.74 3545.75C1332.35 3541.54 1333.98 3537.33 1334.61 3533.09C1335.38 3528.72 1335.03 3524.33 1333.54 3519.92C1332.2 3515.38 1329.1 3510.59 1324.23 3505.56L1275.8 3455.57L1210.08 3519.23L1190.25 3498.76L1344.1 3349.73ZM1334.37 3481.53C1338.96 3486.28 1343.7 3490.45 1348.59 3494.07C1353.49 3497.68 1358.47 3500.09 1363.54 3501.3C1368.9 3502.52 1374.2 3502.39 1379.46 3500.92C1385 3499.45 1390.57 3496.01 1396.17 3490.58C1403.93 3483.06 1408.16 3474.79 1408.87 3465.75C1409.58 3456.7 1405.27 3447.37 1395.95 3437.75L1346.69 3386.9L1293.04 3438.87L1334.37 3481.53Z" fill="white"/>
<path d="M1485.93 3493.73L1602.15 3585.2L1587.31 3604.06L1493.48 3530.22L1451.37 3583.73L1538.83 3652.56L1523.99 3671.42L1436.53 3602.59L1390.7 3660.82L1485.23 3735.22L1470.39 3754.08L1353.46 3662.05L1485.93 3493.73Z" fill="white"/>
<path d="M1801.85 3940.08L1774.94 3927.51L1806.85 3743.73L1806.31 3743.48L1685.25 3885.59L1658.35 3873.02L1699.3 3655.72L1725.67 3668.04L1688.27 3847.26L1688.81 3847.52L1807.75 3706.4L1835.74 3719.48L1803.23 3900.99L1803.77 3901.25L1918.63 3758.22L1944.45 3770.29L1801.85 3940.08Z" fill="white"/>
<path d="M1955.52 3771.91L1982.94 3779.68L1957.83 3868.29L2066.35 3899.04L2091.46 3810.43L2118.88 3818.2L2060.49 4024.29L2033.07 4016.52L2059.81 3922.13L1951.28 3891.38L1924.54 3985.76L1897.12 3977.99L1955.52 3771.91Z" fill="white"/>
<path d="M2179.04 3957.21L2250.9 3967.57L2229.81 3863.6L2229.22 3863.51L2179.04 3957.21ZM2218.05 3835.84L2249.23 3840.33L2301.52 4064.28L2270.34 4059.79L2256.38 3992.61L2166.71 3979.69L2133.75 4040.1L2104.95 4035.95L2218.05 3835.84Z" fill="white"/>
<path d="M2381.81 3876.34L2310.42 3874.89L2310.91 3850.9L2482.18 3854.38L2481.69 3878.37L2410.3 3876.92L2406.44 4067.08L2377.94 4066.5L2381.81 3876.34Z" fill="white"/>
<path d="M2727.46 3953.31L2743.22 4039.48L2715.19 4044.61L2699.42 3958.44L2595.19 3848.8L2628.54 3842.7L2710.05 3931.48L2753.37 3819.87L2785.24 3814.03L2727.46 3953.31Z" fill="white"/>
<path d="M2842.97 3909.4C2846.37 3919.66 2851.06 3929.37 2857.05 3938.56C2862.97 3947.55 2870.1 3955.09 2878.44 3961.18C2886.77 3967.27 2896.22 3971.31 2906.78 3973.29C2917.27 3975.09 2928.69 3973.94 2941.03 3969.86C2953.37 3965.77 2963.22 3959.88 2970.57 3952.18C2977.86 3944.29 2983.04 3935.42 2986.1 3925.56C2989.15 3915.7 2990.38 3905.39 2989.77 3894.64C2989.1 3883.7 2987.06 3873.1 2983.67 3862.84C2980.28 3852.59 2975.62 3842.97 2969.69 3833.97C2963.71 3824.79 2956.54 3817.15 2948.21 3811.06C2939.87 3804.97 2930.46 3801.03 2919.96 3799.24C2909.41 3797.25 2897.96 3798.3 2885.61 3802.39C2873.27 3806.47 2863.46 3812.46 2856.17 3820.35C2848.81 3828.05 2843.61 3836.83 2840.55 3846.69C2837.49 3856.55 2836.3 3866.95 2836.97 3877.89C2837.58 3888.65 2839.58 3899.15 2842.97 3909.4ZM2815.92 3918.36C2811.33 3904.49 2808.93 3890.54 2808.7 3876.5C2808.61 3862.21 2811.01 3848.77 2815.91 3836.2C2820.8 3823.62 2828.36 3812.38 2838.56 3802.48C2848.76 3792.57 2861.94 3784.94 2878.07 3779.6C2894.21 3774.26 2909.33 3772.53 2923.43 3774.39C2937.53 3776.26 2950.3 3780.77 2961.73 3787.95C2973.16 3795.12 2983.01 3804.5 2991.27 3816.09C2999.65 3827.43 3006.14 3840.03 3010.73 3853.89C3015.31 3867.75 3017.66 3881.83 3017.75 3896.12C3017.97 3910.16 3015.64 3923.47 3010.74 3936.05C3005.84 3948.62 2998.29 3959.86 2988.09 3969.77C2977.82 3979.49 2964.62 3987.02 2948.48 3992.36C2932.34 3997.7 2917.25 3999.53 2903.21 3997.86C2889.11 3995.99 2876.35 3991.47 2864.91 3984.3C2853.48 3977.13 2843.57 3967.87 2835.19 3956.53C2826.93 3944.94 2820.5 3932.22 2815.92 3918.36Z" fill="white"/>
<path d="M3215.25 3788.01C3227.59 3812.48 3230.35 3834.16 3223.54 3853.05C3216.63 3871.77 3201.12 3887.21 3177.01 3899.37C3152.37 3911.8 3130.16 3915.73 3110.37 3911.15C3090.68 3906.3 3074.39 3891.11 3061.51 3865.58L2999.89 3743.44L3025.34 3730.6L3086.95 3852.74C3095.6 3869.88 3106.73 3880.62 3120.34 3884.95C3133.86 3889.11 3149.2 3886.86 3166.34 3878.21C3182.59 3870.02 3192.7 3859.43 3196.68 3846.44C3200.75 3833.19 3198.46 3817.99 3189.81 3800.85L3128.19 3678.71L3153.64 3665.88L3215.25 3788.01Z" fill="white"/>
<path d="M3280.28 3585.55L3395.38 3492.67L3410.45 3511.34L3317.53 3586.33L3360.29 3639.32L3446.91 3569.43L3461.98 3588.11L3375.37 3658L3421.9 3715.67L3515.52 3640.12L3530.59 3658.8L3414.79 3752.24L3280.28 3585.55Z" fill="white"/>
<path d="M3539.31 3529.02L3589.69 3476.74L3492.98 3433.12L3492.57 3433.55L3539.31 3529.02ZM3463.58 3426.45L3485.44 3403.77L3697.75 3492.15L3675.89 3514.83L3613.21 3486.92L3550.34 3552.15L3580.13 3614.19L3559.93 3635.15L3463.58 3426.45Z" fill="white"/>
<path d="M3591.91 3317.52L3549.02 3374.6L3529.83 3360.18L3632.74 3223.24L3651.93 3237.66L3609.03 3294.74L3761.09 3409L3743.96 3431.79L3591.91 3317.52Z" fill="white"/>
<path d="M1293.32 1425.96L1343.81 1373.8L1247.2 1329.97L1246.79 1330.4L1293.32 1425.96ZM1217.81 1323.23L1239.72 1300.6L1451.84 1389.44L1429.93 1412.07L1367.32 1384.02L1304.3 1449.12L1333.95 1511.23L1313.71 1532.13L1217.81 1323.23Z" fill="white"/>
<path d="M1344.71 1199.63L1424.41 1137.91C1440.53 1125.42 1456.17 1119.64 1471.3 1120.56C1486.6 1121.37 1499.57 1128.65 1510.23 1142.41C1518.19 1152.68 1522.79 1163.53 1524.05 1174.96C1525.47 1186.25 1522.14 1197.31 1514.06 1208.11L1514.43 1208.59C1520.07 1205.74 1525.24 1204.26 1529.96 1204.15C1534.84 1203.91 1539.37 1204.7 1543.56 1206.52C1547.79 1208.05 1551.76 1210.41 1555.49 1213.59C1559.38 1216.65 1563.15 1220.06 1566.81 1223.8C1570.31 1227.67 1573.79 1231.67 1577.26 1235.82C1580.72 1239.97 1584.36 1243.85 1588.18 1247.47C1592 1251.09 1595.93 1254.37 1599.97 1257.31C1604.06 1259.97 1608.38 1261.8 1612.96 1262.81L1587.82 1282.28C1584.89 1281.77 1581.95 1280.25 1578.99 1277.74C1576.19 1275.1 1573.3 1272.03 1570.32 1268.51C1567.23 1264.84 1563.95 1260.93 1560.48 1256.78C1557.02 1252.63 1553.3 1248.81 1549.32 1245.31C1545.51 1241.69 1541.71 1238.43 1537.95 1235.53C1534.06 1232.47 1530.05 1230.39 1525.91 1229.29C1521.65 1228.04 1517.25 1227.91 1512.7 1228.9C1508.04 1229.73 1502.94 1232.29 1497.4 1236.57L1442.37 1279.19L1498.4 1351.53L1475.87 1368.98L1344.71 1199.63ZM1474.64 1223.85C1479.86 1219.8 1484.53 1215.55 1488.67 1211.09C1492.8 1206.62 1495.74 1201.94 1497.51 1197.03C1499.31 1191.84 1499.77 1186.55 1498.88 1181.17C1498.04 1175.5 1495.22 1169.58 1490.45 1163.41C1483.84 1154.87 1476.08 1149.75 1467.17 1148.05C1458.26 1146.35 1448.51 1149.6 1437.92 1157.81L1381.94 1201.16L1427.68 1260.22L1474.64 1223.85Z" fill="white"/>
<path d="M1594.8 1052.41L1532.84 1087.88L1520.92 1067.06L1669.57 981.942L1681.5 1002.77L1619.54 1038.25L1714.04 1203.31L1689.31 1217.47L1594.8 1052.41Z" fill="white"/>
<path d="M1727.74 955.188L1753.82 943.703L1840.14 1139.74L1814.06 1151.22L1727.74 955.188Z" fill="white"/>
<path d="M1992.89 923.071C1986.75 908.858 1978.09 899.946 1966.89 896.334C1955.82 892.472 1943.23 892.757 1929.11 897.191C1923.39 898.989 1917.94 901.329 1912.76 904.212C1907.59 907.094 1903.23 910.56 1899.68 914.61C1896.32 918.599 1894.02 923.303 1892.79 928.722C1891.69 933.889 1892.18 939.812 1894.28 946.491C1896.26 952.788 1899.69 957.37 1904.57 960.239C1909.59 962.857 1915.54 964.447 1922.42 965.011C1929.5 965.514 1937.22 965.396 1945.58 964.656C1953.88 963.726 1962.34 962.957 1970.95 962.349C1979.76 961.68 1988.49 961.453 1997.15 961.668C2005.76 961.692 2013.8 962.94 2021.28 965.411C2028.96 967.823 2035.66 971.798 2041.38 977.338C2047.29 982.818 2051.84 990.615 2055.01 1000.73C2058.43 1011.6 2058.88 1021.73 2056.38 1031.11C2054.01 1040.24 2049.78 1048.49 2043.71 1055.85C2037.57 1063.01 2030.06 1069.15 2021.18 1074.24C2012.55 1079.47 2003.56 1083.55 1994.21 1086.48C1982.76 1090.08 1971.44 1092.06 1960.23 1092.44C1949.22 1092.75 1938.91 1091.27 1929.29 1088C1919.8 1084.49 1911.35 1078.96 1903.96 1071.43C1896.69 1063.65 1891.11 1053.56 1887.22 1041.16L1912.98 1033.07C1915.67 1041.65 1919.63 1048.59 1924.85 1053.86C1930.21 1058.89 1936.18 1062.57 1942.78 1064.9C1949.58 1067.17 1956.9 1068.12 1964.75 1067.75C1972.6 1067.38 1980.34 1066 1987.97 1063.6C1994.08 1061.68 2000 1059.19 2005.75 1056.13C2011.69 1053.01 2016.72 1049.33 2020.84 1045.1C2024.9 1040.68 2027.71 1035.61 2029.26 1029.88C2030.82 1024.15 2030.43 1017.57 2028.09 1010.13C2025.88 1003.07 2022.17 997.94 2016.98 994.749C2011.97 991.499 2005.9 989.527 1998.77 988.833C1991.76 987.888 1984.08 987.785 1975.72 988.525C1967.35 989.264 1958.8 990.063 1950.05 990.922C1941.44 991.531 1932.86 991.919 1924.32 992.085C1915.72 992.061 1907.67 991.13 1900.17 989.291C1892.81 987.201 1886.26 983.703 1880.53 978.795C1874.93 973.637 1870.66 966.382 1867.72 957.033C1864.48 946.729 1863.8 937.197 1865.66 928.437C1867.46 919.486 1871.05 911.547 1876.42 904.62C1881.92 897.441 1888.7 891.329 1896.76 886.283C1904.95 880.987 1913.72 876.87 1923.07 873.934C1933.56 870.639 1943.68 868.823 1953.43 868.488C1963.18 868.152 1972.23 869.607 1980.58 872.853C1989.13 876.038 1996.6 881.135 2002.99 888.141C2009.52 894.897 2014.74 903.844 2018.65 914.982L1992.89 923.071Z" fill="white"/>
<path d="M2139.37 952.964L2211 941.12L2159.48 848.382L2158.89 848.48L2139.37 952.964ZM2139.88 825.473L2170.96 820.334L2288.48 1018.01L2257.4 1023.15L2223.8 963.33L2134.41 978.111L2121.25 1045.66L2092.54 1050.41L2139.88 825.473Z" fill="white"/>
<path d="M2316.68 801.367L2346.97 800.817L2462.91 972.442L2463.51 972.431L2460.36 798.76L2487.35 798.27L2491.24 1012.43L2460.04 1013L2345.04 843.16L2344.44 843.17L2347.56 1015.04L2320.57 1015.53L2316.68 801.367Z" fill="white"/>
<path d="M2591.58 932.507L2663.59 941.776L2640.94 838.136L2640.34 838.059L2591.58 932.507ZM2628.76 810.555L2660 814.577L2715.67 1037.71L2684.42 1033.69L2669.45 966.729L2579.59 955.161L2547.55 1016.07L2518.69 1012.35L2628.76 810.555Z" fill="white"/>
<path d="M2802.62 838.791L2830.15 846.173L2780.88 1029.88L2890.41 1059.25L2884.2 1082.43L2747.14 1045.68L2802.62 838.791Z" fill="white"/>
<path d="M3217.75 1064.43C3223.45 1050.03 3223.61 1037.6 3218.24 1027.13C3213.14 1016.58 3204.02 1007.88 3190.9 1001.04C3185.58 998.271 3180.07 996.077 3174.37 994.46C3168.67 992.844 3163.14 992.215 3157.76 992.572C3152.57 993.022 3147.62 994.728 3142.92 997.691C3138.49 1000.57 3134.65 1005.11 3131.42 1011.32C3128.37 1017.17 3127.56 1022.84 3128.99 1028.32C3130.69 1033.72 3133.77 1039.04 3138.25 1044.31C3142.9 1049.66 3148.44 1055.03 3154.88 1060.42C3161.42 1065.63 3167.94 1071.06 3174.47 1076.72C3181.17 1082.46 3187.51 1088.47 3193.49 1094.75C3199.56 1100.84 3204.37 1107.41 3207.92 1114.45C3211.65 1121.57 3213.58 1129.12 3213.71 1137.09C3214.03 1145.14 3211.73 1153.87 3206.83 1163.27C3201.57 1173.38 3194.73 1180.87 3186.33 1185.74C3178.2 1190.52 3169.38 1193.37 3159.89 1194.28C3150.48 1195.02 3140.84 1194.05 3130.95 1191.38C3121.15 1188.98 3111.91 1185.52 3103.22 1180.99C3092.57 1175.44 3083.16 1168.85 3074.97 1161.19C3066.95 1153.64 3060.7 1145.3 3056.2 1136.19C3051.97 1127 3049.9 1117.12 3049.98 1106.57C3050.34 1095.93 3053.52 1084.84 3059.53 1073.31L3083.48 1085.79C3079.32 1093.77 3077.22 1101.48 3077.18 1108.9C3077.42 1116.24 3079.05 1123.07 3082.07 1129.38C3085.28 1135.78 3089.79 1141.63 3095.6 1146.91C3101.42 1152.2 3107.87 1156.69 3114.97 1160.39C3120.64 1163.35 3126.6 1165.77 3132.83 1167.67C3139.23 1169.65 3145.39 1170.6 3151.29 1170.52C3157.29 1170.27 3162.87 1168.66 3168.01 1165.71C3173.16 1162.75 3177.54 1157.81 3181.14 1150.9C3184.56 1144.33 3185.56 1138.09 3184.14 1132.16C3182.9 1126.33 3180 1120.64 3175.44 1115.11C3171.15 1109.49 3165.78 1103.99 3159.34 1098.6C3152.9 1093.22 3146.29 1087.74 3139.49 1082.17C3132.97 1076.51 3126.62 1070.73 3120.46 1064.81C3114.39 1058.71 3109.35 1052.37 3105.35 1045.77C3101.61 1039.09 3099.45 1031.98 3098.86 1024.46C3098.54 1016.85 3100.65 1008.7 3105.17 1000.01C3110.17 990.433 3116.41 983.202 3123.92 978.319C3131.52 973.257 3139.67 970.173 3148.36 969.067C3157.33 967.875 3166.45 968.341 3175.71 970.464C3185.25 972.503 3194.36 975.786 3203.06 980.315C3212.81 985.399 3221.26 991.265 3228.39 997.915C3235.52 1004.56 3240.9 1011.99 3244.52 1020.19C3248.32 1028.48 3250 1037.37 3249.58 1046.84C3249.42 1056.23 3246.79 1066.25 3241.69 1076.9L3217.75 1064.43Z" fill="white"/>
<path d="M3343.65 1065.03L3368.2 1082.79L3357.72 1289.64L3358.21 1289.99L3460.06 1149.28L3481.93 1165.12L3356.33 1338.63L3331.06 1320.34L3341.21 1115.48L3340.72 1115.12L3239.93 1254.37L3218.06 1238.54L3343.65 1065.03Z" fill="white"/>
<path d="M3486.52 1336.83L3538.55 1387.45L3582.63 1290.95L3582.2 1290.53L3486.52 1336.83ZM3589.44 1261.58L3612.01 1283.55L3522.64 1495.44L3500.07 1473.48L3528.27 1410.93L3463.33 1347.75L3401.15 1377.25L3380.29 1356.96L3589.44 1261.58Z" fill="white"/>
<path d="M3750.95 1544.79C3761.06 1533 3765.78 1520.43 3765.11 1507.07C3764.57 1493.88 3759.73 1481.33 3750.6 1469.43C3742.81 1459.27 3734.21 1452.01 3724.8 1447.63C3715.52 1443.41 3705.79 1441.42 3695.63 1441.65C3685.76 1441.92 3675.84 1444.11 3665.88 1448.22C3655.93 1452.33 3646.51 1457.79 3637.62 1464.61C3627.94 1472.03 3619.59 1480.2 3612.57 1489.12C3605.71 1497.92 3600.79 1507.11 3597.81 1516.71C3595.12 1526.34 3594.66 1536.26 3596.46 1546.48C3598.25 1556.7 3603.04 1566.89 3610.83 1577.05C3616.55 1584.5 3622.8 1590.18 3629.56 1594.06C3636.6 1597.99 3643.85 1600.37 3651.3 1601.2C3659.03 1602.08 3666.82 1601.4 3674.68 1599.15C3682.53 1596.9 3690.13 1593.34 3697.48 1588.46L3714.83 1611.07C3691.7 1625.28 3669.38 1630.69 3647.86 1627.28C3626.34 1623.88 3607.25 1611.31 3590.57 1589.57C3580.46 1576.4 3573.86 1563.19 3570.75 1549.94C3567.81 1536.57 3567.8 1523.59 3570.75 1511C3573.69 1498.41 3579.28 1486.31 3587.51 1474.7C3595.86 1463.24 3606.23 1452.77 3618.61 1443.27C3630.98 1433.78 3643.91 1426.64 3657.38 1421.85C3671 1416.94 3684.42 1414.71 3697.62 1415.17C3710.95 1415.78 3723.75 1419.32 3736.02 1425.79C3748.58 1432.29 3759.84 1442.05 3769.83 1455.06C3776.64 1463.94 3781.91 1473.27 3785.61 1483.03C3789.32 1492.79 3791.25 1502.53 3791.39 1512.25C3791.54 1521.97 3789.7 1531.57 3785.89 1541.05C3782.23 1550.41 3776.37 1559.19 3768.3 1567.4L3750.95 1544.79Z" fill="white"/>
<path d="M3860.52 1592.24L3874.3 1617.19L3780.83 1668.85L3926.84 1712.23L3944.69 1744.53L3825.39 1707.29L3758.97 1851.3L3741.55 1819.79L3798.89 1699.66L3752.48 1684.53L3686.84 1720.81L3673.05 1695.87L3860.52 1592.24Z" fill="white"/>
<path d="M3968.31 1801.21L3979.21 1827.55L3781.29 1909.46L3770.39 1883.13L3968.31 1801.21Z" fill="white"/>
<path d="M4020.9 1931.12L4029.16 1960.27L3892.83 2116.18L3892.99 2116.76L4060.1 2069.37L4067.47 2095.34L3861.39 2153.78L3852.88 2123.77L3987.73 1969.21L3987.57 1968.63L3822.19 2015.53L3814.82 1989.56L4020.9 1931.12Z" fill="white"/>
<path d="M3918.41 2361.11C3906.28 2354.13 3896.98 2344.79 3890.51 2333.09C3884.24 2321.36 3880.34 2309.25 3878.81 2296.74C3876.87 2280.86 3878.02 2266.31 3882.25 2253.1C3886.68 2239.87 3893.32 2228.28 3902.18 2218.33C3911.04 2208.38 3921.64 2200.34 3933.99 2194.19C3946.33 2188.05 3959.45 2184.13 3973.35 2182.43C3988.84 2180.54 4003.78 2180.83 4018.19 2183.3C4032.82 2185.95 4045.9 2190.8 4057.44 2197.85C4069.01 2205.1 4078.63 2214.6 4086.31 2226.36C4094.22 2238.29 4099.2 2252.69 4101.26 2269.56C4102.67 2281.08 4102.6 2292.07 4101.06 2302.53C4099.74 2313.17 4096.68 2322.81 4091.9 2331.46C4087.13 2340.3 4080.61 2347.95 4072.34 2354.4C4064.28 2361.02 4054.12 2366.09 4041.85 2369.61L4038.4 2341.32C4046.37 2338.93 4053 2335.5 4058.3 2331.03C4063.79 2326.53 4068.09 2321.27 4071.18 2315.25C4074.27 2309.23 4076.28 2302.54 4077.19 2295.17C4078.33 2287.98 4078.41 2280.42 4077.44 2272.47C4075.86 2259.57 4071.92 2248.77 4065.62 2240.07C4059.34 2231.57 4051.57 2224.86 4042.31 2219.95C4033.27 2215.21 4023.12 2212.12 4011.86 2210.67C4000.8 2209.2 3989.61 2209.16 3978.3 2210.54C3967.18 2211.9 3956.65 2214.8 3946.72 2219.23C3936.98 2223.65 3928.52 2229.42 3921.33 2236.54C3914.34 2243.64 3909.01 2251.95 3905.33 2261.46C3901.88 2271.15 3900.88 2281.95 3902.34 2293.87C3903.7 2304.98 3906.69 2314.59 3911.3 2322.69C3915.92 2330.79 3921.66 2337.34 3928.51 2342.35C3935.59 2347.53 3943.48 2351.1 3952.19 2353.06C3961.09 2354.99 3970.38 2355.17 3980.06 2353.58L3971.76 2285.69L3995.58 2282.78L4006.97 2375.98L3895 2389.66L3892.82 2371.8L3918.41 2361.11Z" fill="white"/>
<defs>
<filter id="filter0_d_946_484" x="1014.83" y="1771.9" width="2788.62" height="1414.7" filterUnits="userSpaceOnUse" color-interpolation-filters="sRGB">
<feFlood flood-opacity="0" result="BackgroundImageFix"/>
<feColorMatrix in="SourceAlpha" type="matrix" values="0 0 0 0 0 0 0 0 0 0 0 0 0 0 0 0 0 0 127 0" result="hardAlpha"/>
<feOffset/>
<feGaussianBlur stdDeviation="50"/>
<feComposite in2="hardAlpha" operator="out"/>
<feColorMatrix type="matrix" values="0 0 0 0 0 0 0 0 0 0 0 0 0 0 0.00392157 0 0 0 0.21 0"/>
<feBlend mode="normal" in2="BackgroundImageFix" result="effect1_dropShadow_946_484"/>
<feBlend mode="normal" in="SourceGraphic" in2="effect1_dropShadow_946_484" result="shape"/>
</filter>
</defs>
</svg>
