<svg width="6295" height="1247" viewBox="0 0 6295 1247" fill="none" xmlns="http://www.w3.org/2000/svg">
<path d="M1430.93 386.3C1430.93 388.633 1429.06 390.033 1425.33 390.5C1422.06 390.967 1409.7 391.667 1388.23 392.6C1375.63 393.067 1368.4 395.633 1366.53 400.3C1364.66 403.1 1363.96 418.033 1364.43 445.1L1365.13 526.3C1365.6 580.433 1365.83 651.133 1365.83 738.4V857.4C1365.83 865.333 1364.2 869.3 1360.93 869.3C1355.8 869.3 1321.73 830.8 1258.73 753.8C1196.2 676.333 1127.36 587.9 1052.23 488.5V540.3C1052.23 558.033 1052.46 573.433 1052.93 586.5C1052.93 599.567 1052.93 607.5 1052.93 610.3V828C1052.93 837.8 1055.96 843.867 1062.03 846.2C1071.83 849.933 1083.26 851.8 1096.33 851.8C1111.73 851.8 1120.36 852.967 1122.23 855.3C1122.7 855.767 1122.93 856.7 1122.93 858.1C1122.93 861.833 1119.43 863.7 1112.43 863.7C1108.23 863.7 1104.73 863.467 1101.93 863C1073.93 862.067 1056.43 861.6 1049.43 861.6C1033.1 861.6 1011.63 862.067 985.029 863C971.963 863.467 966.363 863.7 968.229 863.7C961.229 863.7 957.729 861.833 957.729 858.1C957.729 854.833 967.996 852.5 988.529 851.1C1012.33 849.233 1026.1 845.5 1029.83 839.9C1032.16 836.167 1033.33 819.367 1033.33 789.5V501.8C1033.33 472.4 1032.86 454.667 1031.93 448.6C1029.13 428.067 1020.96 413.133 1007.43 403.8C997.163 396.8 978.029 392.833 950.029 391.9C942.563 391.433 938.829 389.333 938.829 385.6C938.829 381.4 942.096 379.3 948.629 379.3C951.429 379.3 961.463 379.767 978.729 380.7C987.129 381.167 999.729 381.4 1016.53 381.4C1051.06 381.4 1079.06 380.933 1100.53 380L1346.23 695.7V418.5C1346.23 407.3 1344.36 400.3 1340.63 397.5C1336.9 394.233 1328.96 392.367 1316.83 391.9L1286.73 390.5C1281.13 390.033 1278.33 388.4 1278.33 385.6C1278.33 381.867 1282.53 380 1290.93 380H1306.33C1309.13 380 1313.8 379.767 1320.33 379.3C1326.4 379.3 1331.76 379.3 1336.43 379.3C1383.56 379.3 1411.1 379.533 1419.03 380C1426.96 380.467 1430.93 382.567 1430.93 386.3ZM1867.84 385.6C1867.84 389.333 1859.91 391.433 1844.04 391.9C1824.44 392.367 1812.54 395.633 1808.34 401.7C1806.94 403.567 1806.01 407.533 1805.54 413.6V709.7C1805.54 819.833 1752.81 874.9 1647.34 874.9C1593.21 874.9 1551.21 858.333 1521.34 825.2C1498.94 800.467 1487.74 756.6 1487.74 693.6V424.8C1487.74 409.867 1485.41 400.767 1480.74 397.5C1476.07 394.233 1461.37 391.667 1436.64 389.8C1431.51 389.333 1428.94 387.467 1428.94 384.2C1428.94 380 1433.14 377.9 1441.54 377.9C1441.54 377.9 1443.41 377.9 1447.14 377.9C1451.34 378.367 1454.84 378.6 1457.64 378.6L1501.04 379.3C1542.11 379.767 1572.44 379.767 1592.04 379.3C1618.17 378.833 1628.44 378.6 1622.84 378.6H1637.54C1645.47 378.6 1649.44 380.933 1649.44 385.6C1649.44 389.8 1642.21 391.9 1627.74 391.9C1607.21 391.9 1596.24 395.633 1594.84 403.1C1593.91 408.233 1593.44 413.133 1593.44 417.8V679.6C1593.44 717.4 1594.14 741.433 1595.54 751.7C1598.81 782.033 1607.44 803.967 1621.44 817.5C1638.71 834.3 1661.34 842.7 1689.34 842.7C1721.07 842.7 1744.41 832.433 1759.34 811.9C1777.54 787.167 1786.64 742.833 1786.64 678.9V447.9C1786.64 443.7 1786.87 438.333 1787.34 431.8C1787.34 425.267 1787.34 421.3 1787.34 419.9C1787.34 407.767 1783.84 399.833 1776.84 396.1C1772.17 393.3 1763.07 391.9 1749.54 391.9C1732.74 391.433 1724.34 388.633 1724.34 383.5C1724.34 379.767 1727.61 377.9 1734.14 377.9C1741.14 377.9 1751.41 378.367 1764.94 379.3C1778.47 379.767 1788.74 380 1795.74 380C1796.21 380 1800.17 379.767 1807.64 379.3C1815.57 379.3 1822.81 379.3 1829.34 379.3H1846.14C1860.61 379.3 1867.84 381.4 1867.84 385.6ZM2277.36 508.8C2277.36 512.533 2275.72 514.4 2272.46 514.4C2267.32 514.4 2262.66 505.3 2258.46 487.1C2250.06 451.167 2238.39 426.667 2223.46 413.6C2208.52 400.533 2184.72 394 2152.06 394C2139.46 394 2128.49 394.467 2119.16 395.4L2119.86 821C2120.32 832.667 2123.59 840.133 2129.66 843.4C2135.72 846.667 2152.06 849.467 2178.66 851.8C2183.79 852.267 2186.36 854.367 2186.36 858.1C2186.36 862.767 2182.62 865.1 2175.16 865.1C2173.76 865.1 2170.26 864.867 2164.66 864.4C2157.66 863.933 2151.82 863.7 2147.16 863.7L2075.06 861.6L1956.06 863.7C1949.52 863.7 1946.26 861.833 1946.26 858.1C1946.26 855.3 1947.19 853.667 1949.06 853.2C1950.92 852.733 1958.62 852.267 1972.16 851.8C1997.82 850.867 2011.59 844.8 2013.46 833.6C2014.39 827.533 2014.86 780.167 2014.86 691.5V395.4C2009.72 394.933 2003.66 394.7 1996.66 394.7C1959.32 394.7 1932.02 401.7 1914.76 415.7C1897.96 429.233 1886.99 453.5 1881.86 488.5C1878.59 509.033 1874.39 519.3 1869.26 519.3C1865.06 519.3 1862.96 516.5 1862.96 510.9C1862.96 507.167 1863.89 494.333 1865.76 472.4C1869.49 426.667 1871.82 395.4 1872.76 378.6H1883.26L1934.36 377.9C1935.76 377.9 1951.86 378.367 1982.66 379.3C2013.92 380.233 2053.59 380.7 2101.66 380.7C2128.26 380.7 2152.06 380.467 2173.06 380C2194.06 379.533 2213.19 379.3 2230.46 379.3C2245.86 379.3 2257.52 378.833 2265.46 377.9C2266.86 408.233 2270.36 446.967 2275.96 494.1C2276.89 502.033 2277.36 506.933 2277.36 508.8ZM2725.31 835.7C2725.31 861.833 2708.28 874.9 2674.21 874.9C2631.28 874.9 2596.98 861.367 2571.31 834.3C2551.24 813.3 2539.81 790.9 2537.01 767.1L2530.01 709.7C2525.34 673.3 2516.71 647.867 2504.11 633.4C2491.98 618.933 2472.14 611.933 2444.61 612.4V771.3C2444.61 808.167 2444.84 828 2445.31 830.8C2445.31 838.733 2448.58 844.333 2455.11 847.6C2461.64 850.4 2474.01 851.8 2492.21 851.8C2503.41 851.8 2509.01 853.9 2509.01 858.1C2509.01 861.833 2506.21 863.7 2500.61 863.7L2432.71 863C2432.71 863 2428.98 863 2421.51 863C2413.11 863.467 2405.18 863.7 2397.71 863.7H2347.31C2342.64 863.7 2337.28 863.467 2331.21 863C2326.08 863 2322.81 863 2321.41 863L2289.21 863.7C2282.68 863.7 2279.41 861.833 2279.41 858.1C2279.41 853.9 2288.98 851.333 2308.11 850.4C2323.98 849.467 2333.31 845.733 2336.11 839.2C2337.51 835.933 2338.21 826.133 2338.21 809.8V449.3C2338.21 425.033 2337.74 410.8 2336.81 406.6C2335.88 401.933 2332.84 398.433 2327.71 396.1C2321.18 393.3 2310.68 391.9 2296.21 391.9C2285.94 391.9 2280.81 389.8 2280.81 385.6C2280.81 382.333 2282.91 380.467 2287.11 380C2291.31 379.067 2302.51 378.6 2320.71 378.6C2320.71 378.6 2324.91 378.6 2333.31 378.6C2341.71 379.067 2349.88 379.3 2357.81 379.3H2380.91C2381.38 379.3 2386.28 379.067 2395.61 378.6C2404.48 378.6 2412.88 378.6 2420.81 378.6H2461.41C2526.74 378.6 2571.31 383.733 2595.11 394C2613.78 401.933 2628.71 414.067 2639.91 430.4C2651.11 446.733 2656.71 464.7 2656.71 484.3C2656.71 529.1 2633.38 562.233 2586.71 583.7C2566.18 593.033 2535.84 600.033 2495.71 604.7L2495.01 608.9C2545.88 612.167 2582.74 625.7 2605.61 649.5C2628.48 672.833 2642.24 710.867 2646.91 763.6C2650.64 805.6 2656.48 831.967 2664.41 842.7C2672.34 852.967 2680.51 858.1 2688.91 858.1C2695.91 858.1 2699.41 856.233 2699.41 852.5C2699.41 850.633 2696.61 848.067 2691.01 844.8C2685.88 841.533 2683.31 836.867 2683.31 830.8C2683.31 818.2 2690.31 811.9 2704.31 811.9C2718.31 811.9 2725.31 819.833 2725.31 835.7ZM2548.21 482.2C2548.21 422 2524.41 391.9 2476.81 391.9C2461.41 391.9 2451.84 397.033 2448.11 407.3C2445.78 413.833 2444.61 439.267 2444.61 483.6V599.8C2481.01 600.267 2507.38 591.167 2523.71 572.5C2540.04 553.833 2548.21 523.733 2548.21 482.2ZM2947.01 858.1C2947.01 861.833 2943.98 863.7 2937.91 863.7C2934.65 863.7 2931.61 863.467 2928.81 863C2900.81 861.6 2876.78 860.9 2856.71 860.9C2835.71 860.9 2804.91 861.6 2764.31 863C2750.78 863.467 2740.75 863.7 2734.21 863.7C2727.21 863.7 2723.71 861.6 2723.71 857.4C2723.71 855.067 2724.88 853.667 2727.21 853.2C2730.01 852.733 2739.11 852.267 2754.51 851.8C2768.98 849 2777.38 844.8 2779.71 839.2C2782.05 833.133 2783.21 814.233 2783.21 782.5V445.8C2783.21 436.933 2783.21 428.3 2783.21 419.9C2782.75 411.5 2782.51 407.533 2782.51 408C2782.51 396.333 2770.85 390.5 2747.51 390.5C2734.45 390.5 2727.91 388.867 2727.91 385.6C2727.91 382.333 2728.85 380.467 2730.71 380C2732.58 379.533 2738.65 379.3 2748.91 379.3C2744.25 379.3 2752.65 379.533 2774.11 380C2795.58 380.467 2814.01 380.7 2829.41 380.7H2865.11C2872.58 380.7 2883.08 380.467 2896.61 380C2910.61 379.067 2920.41 378.6 2926.01 378.6H2933.01C2939.08 378.6 2942.11 380.467 2942.11 384.2C2942.11 387 2940.95 388.867 2938.61 389.8C2936.75 390.267 2929.75 390.733 2917.61 391.2C2903.15 392.133 2894.28 395.167 2891.01 400.3L2888.91 413.6V809.1C2888.91 829.167 2891.01 841.067 2895.21 844.8C2899.88 848.533 2915.05 851.1 2940.71 852.5C2944.91 852.967 2947.01 854.833 2947.01 858.1Z" fill="#93B559"/>
<path d="M3743.04 740.5C3743.04 741.433 3742.8 763.133 3742.34 805.6C3741.87 828 3741.4 844.1 3740.94 853.9C3740.94 863.7 3740.94 868.367 3740.94 867.9C3617.74 862.3 3509.94 860.667 3417.54 863L3358.74 864.4C3350.34 864.4 3346.14 862.533 3346.14 858.8C3346.14 856 3347.07 854.367 3348.94 853.9C3351.27 853.433 3358.5 852.733 3370.64 851.8C3392.57 850.4 3404.47 844.1 3406.34 832.9C3407.27 826.833 3407.74 820.067 3407.74 812.6V457.7C3407.74 429.7 3407.5 414.3 3407.04 411.5C3406.57 404.033 3404.24 398.9 3400.04 396.1C3395.84 393.3 3387.2 391.9 3374.14 391.9C3359.67 391.9 3352.44 389.8 3352.44 385.6C3352.44 380.933 3358.74 378.6 3371.34 378.6C3384.4 378.6 3402.37 378.367 3425.24 377.9C3511.1 376.033 3581.34 375.567 3635.94 376.5L3683.54 377.2C3693.8 377.2 3706.4 376.267 3721.34 374.4L3727.64 450.7C3729.97 474.967 3731.14 489.9 3731.14 495.5C3731.14 500.167 3728.8 502.5 3724.14 502.5C3719.47 502.5 3716.44 496.433 3715.04 484.3C3710.84 452.1 3697.77 428.767 3675.84 414.3C3654.37 399.367 3622.4 391.9 3579.94 391.9C3566.87 391.9 3544.47 392.6 3512.74 394V600.5C3564.07 600.967 3596.27 597.467 3609.34 590C3622.87 582.067 3631.97 562 3636.64 529.8C3638.97 512.533 3642.47 503.9 3647.14 503.9C3651.34 503.9 3653.44 508.1 3653.44 516.5C3653.44 524.9 3652.74 542.167 3651.34 568.3C3650.87 577.167 3650.64 589.067 3650.64 604C3650.64 644.133 3651.1 674.467 3652.04 695C3652.5 697.8 3652.74 701.3 3652.74 705.5C3652.74 711.1 3650.64 713.9 3646.44 713.9C3643.17 713.9 3641.07 712.967 3640.14 711.1C3639.2 708.767 3637.8 701.067 3635.94 688C3631.27 654.867 3624.74 634.333 3616.34 626.4C3608.4 618 3589.74 613.8 3560.34 613.8H3512.74V849.7L3557.54 849C3608.87 848.067 3640.14 846.9 3651.34 845.5C3665.34 843.633 3678.87 838.5 3691.94 830.1C3703.6 820.767 3711.54 810.733 3715.74 800C3720.4 789.267 3725.3 769.433 3730.44 740.5C3731.84 733.5 3734.17 730 3737.44 730C3741.17 730 3743.04 733.5 3743.04 740.5ZM4414.15 384.9C4414.15 388.633 4410.65 390.733 4403.65 391.2C4382.65 392.133 4369.35 394.7 4363.75 398.9C4358.15 402.633 4351.85 414.3 4344.85 433.9C4340.65 444.633 4334.35 460.967 4325.95 482.9C4319.88 501.1 4310.31 529.1 4297.25 566.9C4290.71 584.633 4280.91 611.467 4267.85 647.4L4233.55 743.3C4209.28 810.967 4195.75 849.933 4192.95 860.2C4191.08 866.267 4188.98 869.3 4186.65 869.3C4183.85 869.3 4181.51 867.2 4179.65 863C4177.78 858.333 4172.41 842.233 4163.55 814.7C4151.88 778.3 4134.85 733.033 4112.45 678.9L4088.65 621.5C4041.98 721.367 4008.38 800.7 3987.85 859.5C3985.51 865.567 3982.95 868.6 3980.15 868.6C3978.28 868.6 3972.45 856.233 3962.65 831.5L3877.25 608.9C3856.71 552.9 3830.35 486.167 3798.15 408.7C3794.88 400.3 3789.51 395.167 3782.05 393.3C3777.85 391.9 3769.68 391.2 3757.55 391.2C3745.41 391.2 3739.35 389.1 3739.35 384.9C3739.35 381.167 3742.61 379.3 3749.15 379.3C3748.68 379.3 3756.38 379.3 3772.25 379.3C3788.58 379.767 3802.58 380 3814.25 380H3840.85L3911.55 378.6C3913.88 378.6 3917.85 378.367 3923.45 377.9C3928.11 377.9 3931.38 377.9 3933.25 377.9C3939.31 377.9 3942.35 380.233 3942.35 384.9C3942.35 389.1 3934.88 390.967 3919.95 390.5C3912.01 390.5 3908.05 392.6 3908.05 396.8C3908.05 398.667 3908.51 400.767 3909.45 403.1C3919.71 431.567 3935.35 474.033 3956.35 530.5L4028.45 716.7L4077.45 604.7C4070.45 584.167 4056.91 547.3 4036.85 494.1C4033.11 485.7 4027.98 472.867 4021.45 455.6C4020.05 451.4 4017.71 444.867 4014.45 436C4006.51 414.533 3999.98 401.7 3994.85 397.5C3989.71 392.833 3978.98 390.5 3962.65 390.5C3957.98 390.033 3955.65 387.933 3955.65 384.2C3955.65 380 3960.08 377.9 3968.95 377.9C3967.55 377.9 3969.88 378.133 3975.95 378.6C3982.48 379.067 3992.98 379.3 4007.45 379.3L4251.75 378.6C4260.61 378.133 4265.05 380.233 4265.05 384.9C4265.05 388.633 4261.55 390.5 4254.55 390.5C4221.41 390.033 4202.28 395.633 4197.15 407.3C4189.21 419.9 4172.65 455.6 4147.45 514.4C4163.78 556.4 4189.91 622.9 4225.85 713.9C4233.31 694.767 4241.25 673.533 4249.65 650.2C4257.11 630.6 4269.25 597.233 4286.05 550.1C4296.78 518.833 4305.88 493.4 4313.35 473.8C4325.95 440.667 4332.25 419.2 4332.25 409.4C4332.25 400.067 4327.58 394.233 4318.25 391.9C4314.98 390.967 4306.58 390.5 4293.05 390.5C4285.58 390.5 4281.85 388.633 4281.85 384.9C4281.85 381.167 4285.35 379.3 4292.35 379.3L4347.65 380.7C4371.45 381.167 4389.41 380.7 4401.55 379.3H4407.15C4411.81 379.3 4414.15 381.167 4414.15 384.9ZM4174.05 409.4C4174.05 396.8 4162.85 390.5 4140.45 390.5C4117.58 390.5 4106.15 394.7 4106.15 403.1C4106.15 414.767 4117.35 444.633 4139.75 492.7C4162.61 445.1 4174.05 417.333 4174.05 409.4ZM4788.94 740.5C4788.94 741.433 4788.7 763.133 4788.24 805.6C4787.77 828 4787.3 844.1 4786.84 853.9C4786.84 863.7 4786.84 868.367 4786.84 867.9C4663.64 862.3 4555.84 860.667 4463.44 863L4404.64 864.4C4396.24 864.4 4392.04 862.533 4392.04 858.8C4392.04 856 4392.97 854.367 4394.84 853.9C4397.17 853.433 4404.4 852.733 4416.54 851.8C4438.47 850.4 4450.37 844.1 4452.24 832.9C4453.17 826.833 4453.64 820.067 4453.64 812.6V457.7C4453.64 429.7 4453.4 414.3 4452.94 411.5C4452.47 404.033 4450.14 398.9 4445.94 396.1C4441.74 393.3 4433.1 391.9 4420.04 391.9C4405.57 391.9 4398.34 389.8 4398.34 385.6C4398.34 380.933 4404.64 378.6 4417.24 378.6C4430.3 378.6 4448.27 378.367 4471.14 377.9C4557 376.033 4627.24 375.567 4681.84 376.5L4729.44 377.2C4739.7 377.2 4752.3 376.267 4767.24 374.4L4773.54 450.7C4775.87 474.967 4777.04 489.9 4777.04 495.5C4777.04 500.167 4774.7 502.5 4770.04 502.5C4765.37 502.5 4762.34 496.433 4760.94 484.3C4756.74 452.1 4743.67 428.767 4721.74 414.3C4700.27 399.367 4668.3 391.9 4625.84 391.9C4612.77 391.9 4590.37 392.6 4558.64 394V600.5C4609.97 600.967 4642.17 597.467 4655.24 590C4668.77 582.067 4677.87 562 4682.54 529.8C4684.87 512.533 4688.37 503.9 4693.04 503.9C4697.24 503.9 4699.34 508.1 4699.34 516.5C4699.34 524.9 4698.64 542.167 4697.24 568.3C4696.77 577.167 4696.54 589.067 4696.54 604C4696.54 644.133 4697 674.467 4697.94 695C4698.4 697.8 4698.64 701.3 4698.64 705.5C4698.64 711.1 4696.54 713.9 4692.34 713.9C4689.07 713.9 4686.97 712.967 4686.04 711.1C4685.1 708.767 4683.7 701.067 4681.84 688C4677.17 654.867 4670.64 634.333 4662.24 626.4C4654.3 618 4635.64 613.8 4606.24 613.8H4558.64V849.7L4603.44 849C4654.77 848.067 4686.04 846.9 4697.24 845.5C4711.24 843.633 4724.77 838.5 4737.84 830.1C4749.5 820.767 4757.44 810.733 4761.64 800C4766.3 789.267 4771.2 769.433 4776.34 740.5C4777.74 733.5 4780.07 730 4783.34 730C4787.07 730 4788.94 733.5 4788.94 740.5ZM5195.44 744.7C5195.44 753.567 5195.21 761.033 5194.74 767.1C5192.88 787.633 5192.18 804.2 5192.64 816.8L5193.34 866.5C5133.61 864.167 5025.58 863 4869.24 863H4839.84C4819.31 863 4809.04 861.133 4809.04 857.4C4809.04 853.667 4812.31 851.8 4818.84 851.8C4842.18 851.333 4857.11 848.067 4863.64 842C4867.84 838.267 4869.94 827.067 4869.94 808.4L4869.24 429C4869.24 413.133 4867.84 403.333 4865.04 399.6C4859.44 392.6 4850.81 389.333 4839.14 389.8L4821.64 390.5C4816.51 390.5 4813.94 388.633 4813.94 384.9C4813.94 381.167 4817.21 379.3 4823.74 379.3C4827.48 379.3 4831.21 379.533 4834.94 380H5012.74C5015.08 379.533 5017.64 379.3 5020.44 379.3C5025.11 379.3 5027.44 381.167 5027.44 384.9C5027.44 389.1 5021.38 391.2 5009.24 391.2C4991.98 391.2 4981.71 393.3 4978.44 397.5C4975.64 401.7 4974.24 420.133 4974.24 452.8V619.4C4974.24 653.467 4975.18 729.767 4977.04 848.3C4985.91 848.767 4995.94 849 5007.14 849C5056.14 849 5089.98 847.133 5108.64 843.4C5138.04 837.333 5158.11 822.4 5168.84 798.6C5174.44 786.467 5179.58 767.1 5184.24 740.5C5185.64 733.033 5187.74 729.3 5190.54 729.3C5193.81 729.3 5195.44 734.433 5195.44 744.7Z" fill="#93B559"/>
<path d="M3081.91 989.6C3101.51 987.733 3117.61 981.9 3130.21 972.1C3143.28 962.767 3153.08 946.9 3159.61 924.5C3166.61 902.567 3170.11 872.467 3170.11 834.2V450.6C3170.11 432.867 3168.71 420.033 3165.91 412.1C3163.58 404.167 3158.68 398.8 3151.21 396C3144.21 393.2 3133.01 391.333 3117.61 390.4V376.4C3140.94 377.8 3176.18 378.5 3223.31 378.5C3271.38 378.5 3308.24 377.8 3333.91 376.4V390.4C3318.04 391.333 3306.61 393.2 3299.61 396C3292.61 398.8 3287.71 404.167 3284.91 412.1C3282.58 420.033 3281.41 432.867 3281.41 450.6V706.8V749.5C3281.41 815.3 3277.44 861.967 3269.51 889.5C3259.71 923.567 3238.71 951.1 3206.51 972.1C3174.78 993.1 3133.24 1003.6 3081.91 1003.6V989.6Z" fill="#93B559"/>
<path d="M19.5 62.5H43.25V139.25H137.25V62.5H161V241H137.25V159.25H43.25V241H19.5V62.5ZM230.67 167.25H291.17L261.42 84H260.92L230.67 167.25ZM248.42 62.5H274.67L344.42 241H318.17L298.67 187.25H223.17L203.17 241H178.92L248.42 62.5ZM361.779 62.5H387.029L481.029 207.25H481.529V62.5H504.029V241H478.029L384.779 97.75H384.279V241H361.779V62.5ZM566.199 221H605.699C608.366 221 611.699 220.833 615.699 220.5C619.699 220 623.949 219 628.449 217.5C632.949 215.833 637.366 213.5 641.699 210.5C646.199 207.5 650.199 203.417 653.699 198.25C657.199 193.083 660.033 186.667 662.199 179C664.533 171.167 665.699 161.75 665.699 150.75C665.699 140.083 664.616 130.583 662.449 122.25C660.449 113.75 657.033 106.583 652.199 100.75C647.533 94.75 641.449 90.25 633.949 87.25C626.449 84.0833 617.199 82.5 606.199 82.5H566.199V221ZM542.449 62.5H603.699C631.199 62.5 652.366 69.5 667.199 83.5C682.033 97.5 689.449 118.833 689.449 147.5C689.449 162.5 687.783 175.833 684.449 187.5C681.116 199 675.949 208.75 668.949 216.75C661.949 224.583 653.033 230.583 642.199 234.75C631.366 238.917 618.533 241 603.699 241H542.449V62.5ZM843.975 116.25C841.308 103.583 835.391 94.0833 826.225 87.75C817.225 81.4167 806.475 78.25 793.975 78.25C783.308 78.25 774.141 80.25 766.475 84.25C758.975 88.25 752.725 93.6667 747.725 100.5C742.891 107.167 739.308 114.833 736.975 123.5C734.641 132.167 733.475 141.167 733.475 150.5C733.475 160.667 734.641 170.333 736.975 179.5C739.308 188.5 742.891 196.417 747.725 203.25C752.725 209.917 759.058 215.25 766.725 219.25C774.391 223.25 783.558 225.25 794.225 225.25C802.058 225.25 808.975 224 814.975 221.5C821.141 218.833 826.391 215.25 830.725 210.75C835.225 206.083 838.725 200.583 841.225 194.25C843.725 187.917 845.225 181.083 845.725 173.75H869.475C867.141 196.25 859.391 213.75 846.225 226.25C833.058 238.75 815.058 245 792.225 245C778.391 245 766.308 242.667 755.975 238C745.641 233.167 737.058 226.583 730.225 218.25C723.391 209.917 718.225 200.083 714.725 188.75C711.391 177.417 709.725 165.25 709.725 152.25C709.725 139.25 711.558 127.083 715.225 115.75C718.891 104.25 724.225 94.25 731.225 85.75C738.391 77.25 747.225 70.5833 757.725 65.75C768.391 60.75 780.558 58.25 794.225 58.25C803.558 58.25 812.391 59.5 820.725 62C829.058 64.5 836.475 68.1667 842.975 73C849.475 77.8333 854.891 83.9167 859.225 91.25C863.558 98.4166 866.391 106.75 867.725 116.25H843.975ZM898.894 62.5H982.894C999.894 62.5 1013.14 66.6667 1022.64 75C1032.31 83.3333 1037.14 94.75 1037.14 109.25C1037.14 120.083 1034.64 129.583 1029.64 137.75C1024.81 145.917 1016.98 151.5 1006.14 154.5V155C1011.31 156 1015.48 157.667 1018.64 160C1021.98 162.333 1024.56 165.167 1026.39 168.5C1028.39 171.667 1029.81 175.25 1030.64 179.25C1031.64 183.25 1032.39 187.417 1032.89 191.75C1033.23 196.083 1033.48 200.5 1033.64 205C1033.81 209.5 1034.23 213.917 1034.89 218.25C1035.56 222.583 1036.48 226.75 1037.64 230.75C1038.98 234.583 1040.89 238 1043.39 241H1016.89C1015.23 239.167 1014.06 236.667 1013.39 233.5C1012.89 230.333 1012.56 226.833 1012.39 223C1012.23 219 1012.06 214.75 1011.89 210.25C1011.73 205.75 1011.23 201.333 1010.39 197C1009.73 192.667 1008.89 188.583 1007.89 184.75C1006.89 180.75 1005.31 177.333 1003.14 174.5C1000.98 171.5 998.144 169.167 994.644 167.5C991.144 165.667 986.478 164.75 980.644 164.75H922.644V241H898.894V62.5ZM972.144 144.75C977.644 144.75 982.894 144.333 987.894 143.5C992.894 142.667 997.228 141.083 1000.89 138.75C1004.73 136.25 1007.73 133 1009.89 129C1012.23 124.833 1013.39 119.5 1013.39 113C1013.39 104 1010.89 96.6667 1005.89 91C1000.89 85.3333 992.811 82.5 981.644 82.5H922.644V144.75H972.144ZM1100.79 167.25H1161.29L1131.54 84H1131.04L1100.79 167.25ZM1118.54 62.5H1144.79L1214.54 241H1188.29L1168.79 187.25H1093.29L1073.29 241H1049.04L1118.54 62.5ZM1232.15 62.5H1349.4V82.5H1255.9V139.25H1337.9V159.25H1255.9V241H1232.15V62.5ZM1416.2 82.5H1356.7V62.5H1499.45V82.5H1439.95V241H1416.2V82.5ZM1519.26 62.5H1642.51V82.5H1543.01V139.25H1635.76V159.25H1543.01V221H1643.26V241H1519.26V62.5ZM1695.84 221H1735.34C1738 221 1741.34 220.833 1745.34 220.5C1749.34 220 1753.59 219 1758.09 217.5C1762.59 215.833 1767 213.5 1771.34 210.5C1775.84 207.5 1779.84 203.417 1783.34 198.25C1786.84 193.083 1789.67 186.667 1791.84 179C1794.17 171.167 1795.34 161.75 1795.34 150.75C1795.34 140.083 1794.25 130.583 1792.09 122.25C1790.09 113.75 1786.67 106.583 1781.84 100.75C1777.17 94.75 1771.09 90.25 1763.59 87.25C1756.09 84.0833 1746.84 82.5 1735.84 82.5H1695.84V221ZM1672.09 62.5H1733.34C1760.84 62.5 1782 69.5 1796.84 83.5C1811.67 97.5 1819.09 118.833 1819.09 147.5C1819.09 162.5 1817.42 175.833 1814.09 187.5C1810.75 199 1805.59 208.75 1798.59 216.75C1791.59 224.583 1782.67 230.583 1771.84 234.75C1761 238.917 1748.17 241 1733.34 241H1672.09V62.5ZM2078.94 241H2054.19L2013.44 91H2012.94L1971.69 241H1946.94L1901.19 62.5H1925.44L1960.44 211H1960.94L2000.94 62.5H2026.69L2066.19 211H2066.69L2102.94 62.5H2126.69L2078.94 241ZM2150.14 62.5H2173.89V241H2150.14V62.5ZM2254.34 82.5H2194.84V62.5H2337.59V82.5H2278.09V241H2254.34V82.5ZM2357.39 62.5H2381.14V139.25H2475.14V62.5H2498.89V241H2475.14V159.25H2381.14V241H2357.39V62.5ZM2607.39 62.5H2631.14V221H2725.64V241H2607.39V62.5ZM2760.06 151.75C2760.06 160.75 2761.22 169.667 2763.56 178.5C2765.89 187.167 2769.56 195 2774.56 202C2779.56 209 2785.97 214.667 2793.81 219C2801.64 223.167 2810.97 225.25 2821.81 225.25C2832.64 225.25 2841.97 223.167 2849.81 219C2857.64 214.667 2864.06 209 2869.06 202C2874.06 195 2877.72 187.167 2880.06 178.5C2882.39 169.667 2883.56 160.75 2883.56 151.75C2883.56 142.75 2882.39 133.917 2880.06 125.25C2877.72 116.417 2874.06 108.5 2869.06 101.5C2864.06 94.5 2857.64 88.9167 2849.81 84.75C2841.97 80.4167 2832.64 78.25 2821.81 78.25C2810.97 78.25 2801.64 80.4167 2793.81 84.75C2785.97 88.9167 2779.56 94.5 2774.56 101.5C2769.56 108.5 2765.89 116.417 2763.56 125.25C2761.22 133.917 2760.06 142.75 2760.06 151.75ZM2736.31 151.75C2736.31 139.583 2738.06 127.917 2741.56 116.75C2745.22 105.417 2750.64 95.4167 2757.81 86.75C2764.97 78.0833 2773.89 71.1667 2784.56 66C2795.22 60.8333 2807.64 58.25 2821.81 58.25C2835.97 58.25 2848.39 60.8333 2859.06 66C2869.72 71.1667 2878.64 78.0833 2885.81 86.75C2892.97 95.4167 2898.31 105.417 2901.81 116.75C2905.47 127.917 2907.31 139.583 2907.31 151.75C2907.31 163.917 2905.47 175.667 2901.81 187C2898.31 198.167 2892.97 208.083 2885.81 216.75C2878.64 225.417 2869.72 232.333 2859.06 237.5C2848.39 242.5 2835.97 245 2821.81 245C2807.64 245 2795.22 242.5 2784.56 237.5C2773.89 232.333 2764.97 225.417 2757.81 216.75C2750.64 208.083 2745.22 198.167 2741.56 187C2738.06 175.667 2736.31 163.917 2736.31 151.75ZM3006.5 241H2979.5L2916.75 62.5H2942.25L2993.25 217.25H2993.75L3045.25 62.5H3070L3006.5 241ZM3089.08 62.5H3212.33V82.5H3112.83V139.25H3205.58V159.25H3112.83V221H3213.08V241H3089.08V62.5Z" fill="#8B8B8B"/>
<path d="M3432.25 1088.25H3479.75C3493.25 1088.25 3502.92 1085.92 3508.75 1081.25C3514.75 1076.42 3517.75 1069.25 3517.75 1059.75C3517.75 1053.42 3516.75 1048.42 3514.75 1044.75C3512.75 1041.08 3510 1038.25 3506.5 1036.25C3503 1034.25 3498.92 1033 3494.25 1032.5C3489.75 1031.83 3484.92 1031.5 3479.75 1031.5H3432.25V1088.25ZM3408.5 1011.5H3473.25C3477.08 1011.5 3481.17 1011.58 3485.5 1011.75C3490 1011.75 3494.42 1012 3498.75 1012.5C3503.08 1012.83 3507.08 1013.42 3510.75 1014.25C3514.58 1015.08 3517.83 1016.33 3520.5 1018C3526.33 1021.5 3531.25 1026.33 3535.25 1032.5C3539.42 1038.67 3541.5 1046.25 3541.5 1055.25C3541.5 1064.75 3539.17 1073 3534.5 1080C3530 1086.83 3523.5 1091.92 3515 1095.25V1095.75C3526 1098.08 3534.42 1103.08 3540.25 1110.75C3546.08 1118.42 3549 1127.75 3549 1138.75C3549 1145.25 3547.83 1151.58 3545.5 1157.75C3543.17 1163.92 3539.67 1169.42 3535 1174.25C3530.5 1178.92 3524.83 1182.75 3518 1185.75C3511.33 1188.58 3503.58 1190 3494.75 1190H3408.5V1011.5ZM3432.25 1170H3491.75C3502.25 1170 3510.42 1167.17 3516.25 1161.5C3522.25 1155.83 3525.25 1148 3525.25 1138C3525.25 1132.17 3524.17 1127.33 3522 1123.5C3519.83 1119.67 3516.92 1116.67 3513.25 1114.5C3509.75 1112.17 3505.67 1110.58 3501 1109.75C3496.33 1108.75 3491.5 1108.25 3486.5 1108.25H3432.25V1170ZM3653.39 1117V1190H3629.64V1117L3560.64 1011.5H3588.89L3642.39 1096.5L3694.64 1011.5H3721.64L3653.39 1117ZM3811.33 1011.5H3895.33C3912.33 1011.5 3925.58 1015.67 3935.08 1024C3944.75 1032.33 3949.58 1043.75 3949.58 1058.25C3949.58 1069.08 3947.08 1078.58 3942.08 1086.75C3937.25 1094.92 3929.42 1100.5 3918.58 1103.5V1104C3923.75 1105 3927.92 1106.67 3931.08 1109C3934.42 1111.33 3937 1114.17 3938.83 1117.5C3940.83 1120.67 3942.25 1124.25 3943.08 1128.25C3944.08 1132.25 3944.83 1136.42 3945.33 1140.75C3945.67 1145.08 3945.92 1149.5 3946.08 1154C3946.25 1158.5 3946.67 1162.92 3947.33 1167.25C3948 1171.58 3948.92 1175.75 3950.08 1179.75C3951.42 1183.58 3953.33 1187 3955.83 1190H3929.33C3927.67 1188.17 3926.5 1185.67 3925.83 1182.5C3925.33 1179.33 3925 1175.83 3924.83 1172C3924.67 1168 3924.5 1163.75 3924.33 1159.25C3924.17 1154.75 3923.67 1150.33 3922.83 1146C3922.17 1141.67 3921.33 1137.58 3920.33 1133.75C3919.33 1129.75 3917.75 1126.33 3915.58 1123.5C3913.42 1120.5 3910.58 1118.17 3907.08 1116.5C3903.58 1114.67 3898.92 1113.75 3893.08 1113.75H3835.08V1190H3811.33V1011.5ZM3884.58 1093.75C3890.08 1093.75 3895.33 1093.33 3900.33 1092.5C3905.33 1091.67 3909.67 1090.08 3913.33 1087.75C3917.17 1085.25 3920.17 1082 3922.33 1078C3924.67 1073.83 3925.83 1068.5 3925.83 1062C3925.83 1053 3923.33 1045.67 3918.33 1040C3913.33 1034.33 3905.25 1031.5 3894.08 1031.5H3835.08V1093.75H3884.58ZM4124.97 1125.5C4124.97 1148.33 4118.89 1165.5 4106.72 1177C4094.56 1188.33 4077.22 1194 4054.72 1194C4031.72 1194 4013.72 1188.58 4000.72 1177.75C3987.89 1166.75 3981.47 1149.33 3981.47 1125.5V1011.5H4005.22V1125.5C4005.22 1141.5 4009.47 1153.67 4017.97 1162C4026.47 1170.17 4038.72 1174.25 4054.72 1174.25C4069.89 1174.25 4081.39 1170.17 4089.22 1162C4097.22 1153.67 4101.22 1141.5 4101.22 1125.5V1011.5H4124.97V1125.5ZM4288.39 1065.25C4285.73 1052.58 4279.81 1043.08 4270.64 1036.75C4261.64 1030.42 4250.89 1027.25 4238.39 1027.25C4227.73 1027.25 4218.56 1029.25 4210.89 1033.25C4203.39 1037.25 4197.14 1042.67 4192.14 1049.5C4187.31 1056.17 4183.73 1063.83 4181.39 1072.5C4179.06 1081.17 4177.89 1090.17 4177.89 1099.5C4177.89 1109.67 4179.06 1119.33 4181.39 1128.5C4183.73 1137.5 4187.31 1145.42 4192.14 1152.25C4197.14 1158.92 4203.48 1164.25 4211.14 1168.25C4218.81 1172.25 4227.98 1174.25 4238.64 1174.25C4246.48 1174.25 4253.39 1173 4259.39 1170.5C4265.56 1167.83 4270.81 1164.25 4275.14 1159.75C4279.64 1155.08 4283.14 1149.58 4285.64 1143.25C4288.14 1136.92 4289.64 1130.08 4290.14 1122.75H4313.89C4311.56 1145.25 4303.81 1162.75 4290.64 1175.25C4277.48 1187.75 4259.48 1194 4236.64 1194C4222.81 1194 4210.73 1191.67 4200.39 1187C4190.06 1182.17 4181.48 1175.58 4174.64 1167.25C4167.81 1158.92 4162.64 1149.08 4159.14 1137.75C4155.81 1126.42 4154.14 1114.25 4154.14 1101.25C4154.14 1088.25 4155.98 1076.08 4159.64 1064.75C4163.31 1053.25 4168.64 1043.25 4175.64 1034.75C4182.81 1026.25 4191.64 1019.58 4202.14 1014.75C4212.81 1009.75 4224.98 1007.25 4238.64 1007.25C4247.98 1007.25 4256.81 1008.5 4265.14 1011C4273.48 1013.5 4280.89 1017.17 4287.39 1022C4293.89 1026.83 4299.31 1032.92 4303.64 1040.25C4307.98 1047.42 4310.81 1055.75 4312.14 1065.25H4288.39ZM4343.31 1011.5H4367.06V1088.25H4461.06V1011.5H4484.81V1190H4461.06V1108.25H4367.06V1190H4343.31V1011.5ZM4524.73 1011.5H4548.48V1190H4524.73V1011.5ZM4588.43 1011.5H4612.18V1100.5L4702.68 1011.5H4733.43L4658.18 1083.5L4736.43 1190H4706.43L4641.93 1099.75L4612.18 1127.5V1190H4588.43V1011.5ZM4785.93 1116.25H4846.43L4816.68 1033H4816.18L4785.93 1116.25ZM4803.68 1011.5H4829.93L4899.68 1190H4873.43L4853.93 1136.25H4778.43L4758.43 1190H4734.18L4803.68 1011.5ZM5010.62 1088.25H5058.12C5071.62 1088.25 5081.29 1085.92 5087.12 1081.25C5093.12 1076.42 5096.12 1069.25 5096.12 1059.75C5096.12 1053.42 5095.12 1048.42 5093.12 1044.75C5091.12 1041.08 5088.37 1038.25 5084.87 1036.25C5081.37 1034.25 5077.29 1033 5072.62 1032.5C5068.12 1031.83 5063.29 1031.5 5058.12 1031.5H5010.62V1088.25ZM4986.87 1011.5H5051.62C5055.45 1011.5 5059.54 1011.58 5063.87 1011.75C5068.37 1011.75 5072.79 1012 5077.12 1012.5C5081.45 1012.83 5085.45 1013.42 5089.12 1014.25C5092.95 1015.08 5096.2 1016.33 5098.87 1018C5104.7 1021.5 5109.62 1026.33 5113.62 1032.5C5117.79 1038.67 5119.87 1046.25 5119.87 1055.25C5119.87 1064.75 5117.54 1073 5112.87 1080C5108.37 1086.83 5101.87 1091.92 5093.37 1095.25V1095.75C5104.37 1098.08 5112.79 1103.08 5118.62 1110.75C5124.45 1118.42 5127.37 1127.75 5127.37 1138.75C5127.37 1145.25 5126.2 1151.58 5123.87 1157.75C5121.54 1163.92 5118.04 1169.42 5113.37 1174.25C5108.87 1178.92 5103.2 1182.75 5096.37 1185.75C5089.7 1188.58 5081.95 1190 5073.12 1190H4986.87V1011.5ZM5010.62 1170H5070.12C5080.62 1170 5088.79 1167.17 5094.62 1161.5C5100.62 1155.83 5103.62 1148 5103.62 1138C5103.62 1132.17 5102.54 1127.33 5100.37 1123.5C5098.2 1119.67 5095.29 1116.67 5091.62 1114.5C5088.12 1112.17 5084.04 1110.58 5079.37 1109.75C5074.7 1108.75 5069.87 1108.25 5064.87 1108.25H5010.62V1170ZM5188.76 1116.25H5249.26L5219.51 1033H5219.01L5188.76 1116.25ZM5206.51 1011.5H5232.76L5302.51 1190H5276.26L5256.76 1136.25H5181.26L5161.26 1190H5137.01L5206.51 1011.5ZM5445.62 1065.25C5442.95 1052.58 5437.04 1043.08 5427.87 1036.75C5418.87 1030.42 5408.12 1027.25 5395.62 1027.25C5384.95 1027.25 5375.79 1029.25 5368.12 1033.25C5360.62 1037.25 5354.37 1042.67 5349.37 1049.5C5344.54 1056.17 5340.95 1063.83 5338.62 1072.5C5336.29 1081.17 5335.12 1090.17 5335.12 1099.5C5335.12 1109.67 5336.29 1119.33 5338.62 1128.5C5340.95 1137.5 5344.54 1145.42 5349.37 1152.25C5354.37 1158.92 5360.7 1164.25 5368.37 1168.25C5376.04 1172.25 5385.2 1174.25 5395.87 1174.25C5403.7 1174.25 5410.62 1173 5416.62 1170.5C5422.79 1167.83 5428.04 1164.25 5432.37 1159.75C5436.87 1155.08 5440.37 1149.58 5442.87 1143.25C5445.37 1136.92 5446.87 1130.08 5447.37 1122.75H5471.12C5468.79 1145.25 5461.04 1162.75 5447.87 1175.25C5434.7 1187.75 5416.7 1194 5393.87 1194C5380.04 1194 5367.95 1191.67 5357.62 1187C5347.29 1182.17 5338.7 1175.58 5331.87 1167.25C5325.04 1158.92 5319.87 1149.08 5316.37 1137.75C5313.04 1126.42 5311.37 1114.25 5311.37 1101.25C5311.37 1088.25 5313.2 1076.08 5316.87 1064.75C5320.54 1053.25 5325.87 1043.25 5332.87 1034.75C5340.04 1026.25 5348.87 1019.58 5359.37 1014.75C5370.04 1009.75 5382.2 1007.25 5395.87 1007.25C5405.2 1007.25 5414.04 1008.5 5422.37 1011C5430.7 1013.5 5438.12 1017.17 5444.62 1022C5451.12 1026.83 5456.54 1032.92 5460.87 1040.25C5465.2 1047.42 5468.04 1055.75 5469.37 1065.25H5445.62ZM5500.54 1011.5H5524.29V1088.25H5618.29V1011.5H5642.04V1190H5618.29V1108.25H5524.29V1190H5500.54V1011.5ZM5842.21 1190H5817.46L5776.71 1040H5776.21L5734.96 1190H5710.21L5664.46 1011.5H5688.71L5723.71 1160H5724.21L5764.21 1011.5H5789.96L5829.46 1160H5829.96L5866.21 1011.5H5889.96L5842.21 1190ZM5937.05 1116.25H5997.55L5967.8 1033H5967.3L5937.05 1116.25ZM5954.8 1011.5H5981.05L6050.8 1190H6024.55L6005.05 1136.25H5929.55L5909.55 1190H5885.3L5954.8 1011.5ZM6068.16 1011.5H6093.41L6187.41 1156.25H6187.91V1011.5H6210.41V1190H6184.41L6091.16 1046.75H6090.66V1190H6068.16V1011.5ZM6249.83 1011.5H6273.58V1190H6249.83V1011.5Z" fill="#8B8B8B"/>
</svg>
