<svg width="4263" height="939" viewBox="0 0 4263 939" fill="none" xmlns="http://www.w3.org/2000/svg">
<path d="M492.929 271.3C492.929 273.633 491.063 275.033 487.329 275.5C484.063 275.967 471.696 276.667 450.229 277.6C437.629 278.067 430.396 280.633 428.529 285.3C426.663 288.1 425.963 303.033 426.429 330.1L427.129 411.3C427.596 465.433 427.829 536.133 427.829 623.4V742.4C427.829 750.333 426.196 754.3 422.929 754.3C417.796 754.3 383.729 715.8 320.729 638.8C258.196 561.333 189.363 472.9 114.229 373.5V425.3C114.229 443.033 114.463 458.433 114.929 471.5C114.929 484.567 114.929 492.5 114.929 495.3V713C114.929 722.8 117.963 728.867 124.029 731.2C133.829 734.933 145.263 736.8 158.329 736.8C173.729 736.8 182.363 737.967 184.229 740.3C184.696 740.767 184.929 741.7 184.929 743.1C184.929 746.833 181.429 748.7 174.429 748.7C170.229 748.7 166.729 748.467 163.929 748C135.929 747.067 118.429 746.6 111.429 746.6C95.096 746.6 73.6293 747.067 47.0293 748C33.9626 748.467 28.3626 748.7 30.2293 748.7C23.2293 748.7 19.7293 746.833 19.7293 743.1C19.7293 739.833 29.996 737.5 50.5293 736.1C74.3293 734.233 88.096 730.5 91.8293 724.9C94.1626 721.167 95.3293 704.367 95.3293 674.5V386.8C95.3293 357.4 94.8626 339.667 93.9293 333.6C91.1293 313.067 82.9626 298.133 69.4293 288.8C59.1626 281.8 40.0293 277.833 12.0293 276.9C4.56263 276.433 0.829295 274.333 0.829295 270.6C0.829295 266.4 4.09596 264.3 10.6293 264.3C13.4293 264.3 23.4626 264.767 40.7293 265.7C49.1293 266.167 61.7293 266.4 78.5293 266.4C113.063 266.4 141.063 265.933 162.529 265L408.229 580.7V303.5C408.229 292.3 406.363 285.3 402.629 282.5C398.896 279.233 390.963 277.367 378.829 276.9L348.729 275.5C343.129 275.033 340.329 273.4 340.329 270.6C340.329 266.867 344.529 265 352.929 265H368.329C371.129 265 375.796 264.767 382.329 264.3C388.396 264.3 393.763 264.3 398.429 264.3C445.563 264.3 473.096 264.533 481.029 265C488.963 265.467 492.929 267.567 492.929 271.3ZM929.839 270.6C929.839 274.333 921.905 276.433 906.039 276.9C886.439 277.367 874.539 280.633 870.339 286.7C868.939 288.567 868.005 292.533 867.539 298.6V594.7C867.539 704.833 814.805 759.9 709.339 759.9C655.205 759.9 613.205 743.333 583.339 710.2C560.939 685.467 549.739 641.6 549.739 578.6V309.8C549.739 294.867 547.405 285.767 542.739 282.5C538.072 279.233 523.372 276.667 498.639 274.8C493.505 274.333 490.939 272.467 490.939 269.2C490.939 265 495.139 262.9 503.539 262.9C503.539 262.9 505.405 262.9 509.139 262.9C513.339 263.367 516.839 263.6 519.639 263.6L563.039 264.3C604.105 264.767 634.439 264.767 654.039 264.3C680.172 263.833 690.439 263.6 684.839 263.6H699.539C707.472 263.6 711.439 265.933 711.439 270.6C711.439 274.8 704.205 276.9 689.739 276.9C669.205 276.9 658.239 280.633 656.839 288.1C655.905 293.233 655.439 298.133 655.439 302.8V564.6C655.439 602.4 656.139 626.433 657.539 636.7C660.805 667.033 669.439 688.967 683.439 702.5C700.705 719.3 723.339 727.7 751.339 727.7C783.072 727.7 806.405 717.433 821.339 696.9C839.539 672.167 848.639 627.833 848.639 563.9V332.9C848.639 328.7 848.872 323.333 849.339 316.8C849.339 310.267 849.339 306.3 849.339 304.9C849.339 292.767 845.839 284.833 838.839 281.1C834.172 278.3 825.072 276.9 811.539 276.9C794.739 276.433 786.339 273.633 786.339 268.5C786.339 264.767 789.605 262.9 796.139 262.9C803.139 262.9 813.405 263.367 826.939 264.3C840.472 264.767 850.739 265 857.739 265C858.205 265 862.172 264.767 869.639 264.3C877.572 264.3 884.805 264.3 891.339 264.3H908.139C922.605 264.3 929.839 266.4 929.839 270.6ZM1339.36 393.8C1339.36 397.533 1337.72 399.4 1334.46 399.4C1329.32 399.4 1324.66 390.3 1320.46 372.1C1312.06 336.167 1300.39 311.667 1285.46 298.6C1270.52 285.533 1246.72 279 1214.06 279C1201.46 279 1190.49 279.467 1181.16 280.4L1181.86 706C1182.32 717.667 1185.59 725.133 1191.66 728.4C1197.72 731.667 1214.06 734.467 1240.66 736.8C1245.79 737.267 1248.36 739.367 1248.36 743.1C1248.36 747.767 1244.62 750.1 1237.16 750.1C1235.76 750.1 1232.26 749.867 1226.66 749.4C1219.66 748.933 1213.82 748.7 1209.16 748.7L1137.06 746.6L1018.06 748.7C1011.52 748.7 1008.26 746.833 1008.26 743.1C1008.26 740.3 1009.19 738.667 1011.06 738.2C1012.92 737.733 1020.62 737.267 1034.16 736.8C1059.82 735.867 1073.59 729.8 1075.46 718.6C1076.39 712.533 1076.86 665.167 1076.86 576.5V280.4C1071.72 279.933 1065.66 279.7 1058.66 279.7C1021.32 279.7 994.022 286.7 976.755 300.7C959.955 314.233 948.988 338.5 943.855 373.5C940.588 394.033 936.388 404.3 931.255 404.3C927.055 404.3 924.955 401.5 924.955 395.9C924.955 392.167 925.888 379.333 927.755 357.4C931.488 311.667 933.822 280.4 934.755 263.6H945.255L996.355 262.9C997.755 262.9 1013.86 263.367 1044.66 264.3C1075.92 265.233 1115.59 265.7 1163.66 265.7C1190.26 265.7 1214.06 265.467 1235.06 265C1256.06 264.533 1275.19 264.3 1292.46 264.3C1307.86 264.3 1319.52 263.833 1327.46 262.9C1328.86 293.233 1332.36 331.967 1337.96 379.1C1338.89 387.033 1339.36 391.933 1339.36 393.8ZM1787.31 720.7C1787.31 746.833 1770.28 759.9 1736.21 759.9C1693.28 759.9 1658.98 746.367 1633.31 719.3C1613.24 698.3 1601.81 675.9 1599.01 652.1L1592.01 594.7C1587.34 558.3 1578.71 532.867 1566.11 518.4C1553.98 503.933 1534.14 496.933 1506.61 497.4V656.3C1506.61 693.167 1506.84 713 1507.31 715.8C1507.31 723.733 1510.58 729.333 1517.11 732.6C1523.64 735.4 1536.01 736.8 1554.21 736.8C1565.41 736.8 1571.01 738.9 1571.01 743.1C1571.01 746.833 1568.21 748.7 1562.61 748.7L1494.71 748C1494.71 748 1490.98 748 1483.51 748C1475.11 748.467 1467.18 748.7 1459.71 748.7H1409.31C1404.64 748.7 1399.28 748.467 1393.21 748C1388.08 748 1384.81 748 1383.41 748L1351.21 748.7C1344.68 748.7 1341.41 746.833 1341.41 743.1C1341.41 738.9 1350.98 736.333 1370.11 735.4C1385.98 734.467 1395.31 730.733 1398.11 724.2C1399.51 720.933 1400.21 711.133 1400.21 694.8V334.3C1400.21 310.033 1399.74 295.8 1398.81 291.6C1397.88 286.933 1394.84 283.433 1389.71 281.1C1383.18 278.3 1372.68 276.9 1358.21 276.9C1347.94 276.9 1342.81 274.8 1342.81 270.6C1342.81 267.333 1344.91 265.467 1349.11 265C1353.31 264.067 1364.51 263.6 1382.71 263.6C1382.71 263.6 1386.91 263.6 1395.31 263.6C1403.71 264.067 1411.88 264.3 1419.81 264.3H1442.91C1443.38 264.3 1448.28 264.067 1457.61 263.6C1466.48 263.6 1474.88 263.6 1482.81 263.6H1523.41C1588.74 263.6 1633.31 268.733 1657.11 279C1675.78 286.933 1690.71 299.067 1701.91 315.4C1713.11 331.733 1718.71 349.7 1718.71 369.3C1718.71 414.1 1695.38 447.233 1648.71 468.7C1628.18 478.033 1597.84 485.033 1557.71 489.7L1557.01 493.9C1607.88 497.167 1644.74 510.7 1667.61 534.5C1690.48 557.833 1704.24 595.867 1708.91 648.6C1712.64 690.6 1718.48 716.967 1726.41 727.7C1734.34 737.967 1742.51 743.1 1750.91 743.1C1757.91 743.1 1761.41 741.233 1761.41 737.5C1761.41 735.633 1758.61 733.067 1753.01 729.8C1747.88 726.533 1745.31 721.867 1745.31 715.8C1745.31 703.2 1752.31 696.9 1766.31 696.9C1780.31 696.9 1787.31 704.833 1787.31 720.7ZM1610.21 367.2C1610.21 307 1586.41 276.9 1538.81 276.9C1523.41 276.9 1513.84 282.033 1510.11 292.3C1507.78 298.833 1506.61 324.267 1506.61 368.6V484.8C1543.01 485.267 1569.38 476.167 1585.71 457.5C1602.04 438.833 1610.21 408.733 1610.21 367.2ZM2009.01 743.1C2009.01 746.833 2005.98 748.7 1999.91 748.7C1996.65 748.7 1993.61 748.467 1990.81 748C1962.81 746.6 1938.78 745.9 1918.71 745.9C1897.71 745.9 1866.91 746.6 1826.31 748C1812.78 748.467 1802.75 748.7 1796.21 748.7C1789.21 748.7 1785.71 746.6 1785.71 742.4C1785.71 740.067 1786.88 738.667 1789.21 738.2C1792.01 737.733 1801.11 737.267 1816.51 736.8C1830.98 734 1839.38 729.8 1841.71 724.2C1844.05 718.133 1845.21 699.233 1845.21 667.5V330.8C1845.21 321.933 1845.21 313.3 1845.21 304.9C1844.75 296.5 1844.51 292.533 1844.51 293C1844.51 281.333 1832.85 275.5 1809.51 275.5C1796.45 275.5 1789.91 273.867 1789.91 270.6C1789.91 267.333 1790.85 265.467 1792.71 265C1794.58 264.533 1800.65 264.3 1810.91 264.3C1806.25 264.3 1814.65 264.533 1836.11 265C1857.58 265.467 1876.01 265.7 1891.41 265.7H1927.11C1934.58 265.7 1945.08 265.467 1958.61 265C1972.61 264.067 1982.41 263.6 1988.01 263.6H1995.01C2001.08 263.6 2004.11 265.467 2004.11 269.2C2004.11 272 2002.95 273.867 2000.61 274.8C1998.75 275.267 1991.75 275.733 1979.61 276.2C1965.15 277.133 1956.28 280.167 1953.01 285.3L1950.91 298.6V694.1C1950.91 714.167 1953.01 726.067 1957.21 729.8C1961.88 733.533 1977.05 736.1 2002.71 737.5C2006.91 737.967 2009.01 739.833 2009.01 743.1Z" fill="#93B559"/>
<path d="M2805.04 625.5C2805.04 626.433 2804.8 648.133 2804.34 690.6C2803.87 713 2803.4 729.1 2802.94 738.9C2802.94 748.7 2802.94 753.367 2802.94 752.9C2679.74 747.3 2571.94 745.667 2479.54 748L2420.74 749.4C2412.34 749.4 2408.14 747.533 2408.14 743.8C2408.14 741 2409.07 739.367 2410.94 738.9C2413.27 738.433 2420.5 737.733 2432.64 736.8C2454.57 735.4 2466.47 729.1 2468.34 717.9C2469.27 711.833 2469.74 705.067 2469.74 697.6V342.7C2469.74 314.7 2469.5 299.3 2469.04 296.5C2468.57 289.033 2466.24 283.9 2462.04 281.1C2457.84 278.3 2449.2 276.9 2436.14 276.9C2421.67 276.9 2414.44 274.8 2414.44 270.6C2414.44 265.933 2420.74 263.6 2433.34 263.6C2446.4 263.6 2464.37 263.367 2487.24 262.9C2573.1 261.033 2643.34 260.567 2697.94 261.5L2745.54 262.2C2755.8 262.2 2768.4 261.267 2783.34 259.4L2789.64 335.7C2791.97 359.967 2793.14 374.9 2793.14 380.5C2793.14 385.167 2790.8 387.5 2786.14 387.5C2781.47 387.5 2778.44 381.433 2777.04 369.3C2772.84 337.1 2759.77 313.767 2737.84 299.3C2716.37 284.367 2684.4 276.9 2641.94 276.9C2628.87 276.9 2606.47 277.6 2574.74 279V485.5C2626.07 485.967 2658.27 482.467 2671.34 475C2684.87 467.067 2693.97 447 2698.64 414.8C2700.97 397.533 2704.47 388.9 2709.14 388.9C2713.34 388.9 2715.44 393.1 2715.44 401.5C2715.44 409.9 2714.74 427.167 2713.34 453.3C2712.87 462.167 2712.64 474.067 2712.64 489C2712.64 529.133 2713.1 559.467 2714.04 580C2714.5 582.8 2714.74 586.3 2714.74 590.5C2714.74 596.1 2712.64 598.9 2708.44 598.9C2705.17 598.9 2703.07 597.967 2702.14 596.1C2701.2 593.767 2699.8 586.067 2697.94 573C2693.27 539.867 2686.74 519.333 2678.34 511.4C2670.4 503 2651.74 498.8 2622.34 498.8H2574.74V734.7L2619.54 734C2670.87 733.067 2702.14 731.9 2713.34 730.5C2727.34 728.633 2740.87 723.5 2753.94 715.1C2765.6 705.767 2773.54 695.733 2777.74 685C2782.4 674.267 2787.3 654.433 2792.44 625.5C2793.84 618.5 2796.17 615 2799.44 615C2803.17 615 2805.04 618.5 2805.04 625.5ZM3476.15 269.9C3476.15 273.633 3472.65 275.733 3465.65 276.2C3444.65 277.133 3431.35 279.7 3425.75 283.9C3420.15 287.633 3413.85 299.3 3406.85 318.9C3402.65 329.633 3396.35 345.967 3387.95 367.9C3381.88 386.1 3372.31 414.1 3359.25 451.9C3352.71 469.633 3342.91 496.467 3329.85 532.4L3295.55 628.3C3271.28 695.967 3257.75 734.933 3254.95 745.2C3253.08 751.267 3250.98 754.3 3248.65 754.3C3245.85 754.3 3243.51 752.2 3241.65 748C3239.78 743.333 3234.41 727.233 3225.55 699.7C3213.88 663.3 3196.85 618.033 3174.45 563.9L3150.65 506.5C3103.98 606.367 3070.38 685.7 3049.85 744.5C3047.51 750.567 3044.95 753.6 3042.15 753.6C3040.28 753.6 3034.45 741.233 3024.65 716.5L2939.25 493.9C2918.71 437.9 2892.35 371.167 2860.15 293.7C2856.88 285.3 2851.51 280.167 2844.05 278.3C2839.85 276.9 2831.68 276.2 2819.55 276.2C2807.41 276.2 2801.35 274.1 2801.35 269.9C2801.35 266.167 2804.61 264.3 2811.15 264.3C2810.68 264.3 2818.38 264.3 2834.25 264.3C2850.58 264.767 2864.58 265 2876.25 265H2902.85L2973.55 263.6C2975.88 263.6 2979.85 263.367 2985.45 262.9C2990.11 262.9 2993.38 262.9 2995.25 262.9C3001.31 262.9 3004.35 265.233 3004.35 269.9C3004.35 274.1 2996.88 275.967 2981.95 275.5C2974.01 275.5 2970.05 277.6 2970.05 281.8C2970.05 283.667 2970.51 285.767 2971.45 288.1C2981.71 316.567 2997.35 359.033 3018.35 415.5L3090.45 601.7L3139.45 489.7C3132.45 469.167 3118.91 432.3 3098.85 379.1C3095.11 370.7 3089.98 357.867 3083.45 340.6C3082.05 336.4 3079.71 329.867 3076.45 321C3068.51 299.533 3061.98 286.7 3056.85 282.5C3051.71 277.833 3040.98 275.5 3024.65 275.5C3019.98 275.033 3017.65 272.933 3017.65 269.2C3017.65 265 3022.08 262.9 3030.95 262.9C3029.55 262.9 3031.88 263.133 3037.95 263.6C3044.48 264.067 3054.98 264.3 3069.45 264.3L3313.75 263.6C3322.61 263.133 3327.05 265.233 3327.05 269.9C3327.05 273.633 3323.55 275.5 3316.55 275.5C3283.41 275.033 3264.28 280.633 3259.15 292.3C3251.21 304.9 3234.65 340.6 3209.45 399.4C3225.78 441.4 3251.91 507.9 3287.85 598.9C3295.31 579.767 3303.25 558.533 3311.65 535.2C3319.11 515.6 3331.25 482.233 3348.05 435.1C3358.78 403.833 3367.88 378.4 3375.35 358.8C3387.95 325.667 3394.25 304.2 3394.25 294.4C3394.25 285.067 3389.58 279.233 3380.25 276.9C3376.98 275.967 3368.58 275.5 3355.05 275.5C3347.58 275.5 3343.85 273.633 3343.85 269.9C3343.85 266.167 3347.35 264.3 3354.35 264.3L3409.65 265.7C3433.45 266.167 3451.41 265.7 3463.55 264.3H3469.15C3473.81 264.3 3476.15 266.167 3476.15 269.9ZM3236.05 294.4C3236.05 281.8 3224.85 275.5 3202.45 275.5C3179.58 275.5 3168.15 279.7 3168.15 288.1C3168.15 299.767 3179.35 329.633 3201.75 377.7C3224.61 330.1 3236.05 302.333 3236.05 294.4ZM3850.94 625.5C3850.94 626.433 3850.7 648.133 3850.24 690.6C3849.77 713 3849.3 729.1 3848.84 738.9C3848.84 748.7 3848.84 753.367 3848.84 752.9C3725.64 747.3 3617.84 745.667 3525.44 748L3466.64 749.4C3458.24 749.4 3454.04 747.533 3454.04 743.8C3454.04 741 3454.97 739.367 3456.84 738.9C3459.17 738.433 3466.4 737.733 3478.54 736.8C3500.47 735.4 3512.37 729.1 3514.24 717.9C3515.17 711.833 3515.64 705.067 3515.64 697.6V342.7C3515.64 314.7 3515.4 299.3 3514.94 296.5C3514.47 289.033 3512.14 283.9 3507.94 281.1C3503.74 278.3 3495.1 276.9 3482.04 276.9C3467.57 276.9 3460.34 274.8 3460.34 270.6C3460.34 265.933 3466.64 263.6 3479.24 263.6C3492.3 263.6 3510.27 263.367 3533.14 262.9C3619 261.033 3689.24 260.567 3743.84 261.5L3791.44 262.2C3801.7 262.2 3814.3 261.267 3829.24 259.4L3835.54 335.7C3837.87 359.967 3839.04 374.9 3839.04 380.5C3839.04 385.167 3836.7 387.5 3832.04 387.5C3827.37 387.5 3824.34 381.433 3822.94 369.3C3818.74 337.1 3805.67 313.767 3783.74 299.3C3762.27 284.367 3730.3 276.9 3687.84 276.9C3674.77 276.9 3652.37 277.6 3620.64 279V485.5C3671.97 485.967 3704.17 482.467 3717.24 475C3730.77 467.067 3739.87 447 3744.54 414.8C3746.87 397.533 3750.37 388.9 3755.04 388.9C3759.24 388.9 3761.34 393.1 3761.34 401.5C3761.34 409.9 3760.64 427.167 3759.24 453.3C3758.77 462.167 3758.54 474.067 3758.54 489C3758.54 529.133 3759 559.467 3759.94 580C3760.4 582.8 3760.64 586.3 3760.64 590.5C3760.64 596.1 3758.54 598.9 3754.34 598.9C3751.07 598.9 3748.97 597.967 3748.04 596.1C3747.1 593.767 3745.7 586.067 3743.84 573C3739.17 539.867 3732.64 519.333 3724.24 511.4C3716.3 503 3697.64 498.8 3668.24 498.8H3620.64V734.7L3665.44 734C3716.77 733.067 3748.04 731.9 3759.24 730.5C3773.24 728.633 3786.77 723.5 3799.84 715.1C3811.5 705.767 3819.44 695.733 3823.64 685C3828.3 674.267 3833.2 654.433 3838.34 625.5C3839.74 618.5 3842.07 615 3845.34 615C3849.07 615 3850.94 618.5 3850.94 625.5ZM4257.44 629.7C4257.44 638.567 4257.21 646.033 4256.74 652.1C4254.88 672.633 4254.18 689.2 4254.64 701.8L4255.34 751.5C4195.61 749.167 4087.58 748 3931.24 748H3901.84C3881.31 748 3871.04 746.133 3871.04 742.4C3871.04 738.667 3874.31 736.8 3880.84 736.8C3904.18 736.333 3919.11 733.067 3925.64 727C3929.84 723.267 3931.94 712.067 3931.94 693.4L3931.24 314C3931.24 298.133 3929.84 288.333 3927.04 284.6C3921.44 277.6 3912.81 274.333 3901.14 274.8L3883.64 275.5C3878.51 275.5 3875.94 273.633 3875.94 269.9C3875.94 266.167 3879.21 264.3 3885.74 264.3C3889.48 264.3 3893.21 264.533 3896.94 265H4074.74C4077.08 264.533 4079.64 264.3 4082.44 264.3C4087.11 264.3 4089.44 266.167 4089.44 269.9C4089.44 274.1 4083.38 276.2 4071.24 276.2C4053.98 276.2 4043.71 278.3 4040.44 282.5C4037.64 286.7 4036.24 305.133 4036.24 337.8V504.4C4036.24 538.467 4037.18 614.767 4039.04 733.3C4047.91 733.767 4057.94 734 4069.14 734C4118.14 734 4151.98 732.133 4170.64 728.4C4200.04 722.333 4220.11 707.4 4230.84 683.6C4236.44 671.467 4241.58 652.1 4246.24 625.5C4247.64 618.033 4249.74 614.3 4252.54 614.3C4255.81 614.3 4257.44 619.433 4257.44 629.7Z" fill="#93B559"/>
<path d="M2143.91 874.6C2163.51 872.733 2179.61 866.9 2192.21 857.1C2205.28 847.767 2215.08 831.9 2221.61 809.5C2228.61 787.567 2232.11 757.467 2232.11 719.2V335.6C2232.11 317.867 2230.71 305.033 2227.91 297.1C2225.58 289.167 2220.68 283.8 2213.21 281C2206.21 278.2 2195.01 276.333 2179.61 275.4V261.4C2202.94 262.8 2238.18 263.5 2285.31 263.5C2333.38 263.5 2370.24 262.8 2395.91 261.4V275.4C2380.04 276.333 2368.61 278.2 2361.61 281C2354.61 283.8 2349.71 289.167 2346.91 297.1C2344.58 305.033 2343.41 317.867 2343.41 335.6V591.8V634.5C2343.41 700.3 2339.44 746.967 2331.51 774.5C2321.71 808.567 2300.71 836.1 2268.51 857.1C2236.78 878.1 2195.24 888.6 2143.91 888.6V874.6Z" fill="#93B559"/>
</svg>
